<?xml version="1.0" encoding="UTF-8"?>
<svg version="1.1" xmlns="http://www.w3.org/2000/svg" width="268" height="268">
<path d="M0 0 C1.60271112 0.03633506 3.20547553 0.07040858 4.80828857 0.10192871 C33.75277718 0.69151382 33.75277718 0.69151382 38.33151245 4.06488037 C40.26414596 6.85019583 40.60114838 9.50122141 40.77804565 12.78924561 C40.82529282 13.62334961 40.87253998 14.45745361 40.92121887 15.3168335 C40.9689595 16.22707275 41.01670013 17.13731201 41.06588745 18.07513428 C41.17804664 20.05993362 41.29052897 22.04471473 41.40328979 24.02947998 C41.46184143 25.08156647 41.52039307 26.13365295 41.58071899 27.21762085 C43.77354409 66.17129692 46.99834796 104.84018381 53.03439331 143.39691162 C53.21494263 144.55142822 53.39549194 145.70594482 53.58151245 146.89544678 C53.7420813 147.90599121 53.90265015 148.91653564 54.06808472 149.95770264 C54.76387826 154.88480444 55.24658661 158.98437215 53.0776062 163.61810303 C51.4526062 165.68060303 51.4526062 165.68060303 49.4526062 166.68060303 C47.80436131 166.79438654 46.15173653 166.84731983 44.49972534 166.87005615 C43.46848038 166.88677368 42.43723541 166.90349121 41.3747406 166.92071533 C40.25703781 166.93429077 39.13933502 166.94786621 37.98776245 166.96185303 C36.84351303 166.98026245 35.69926361 166.99867188 34.52033997 167.01763916 C30.85198216 167.07653019 27.18357728 167.12928232 23.5151062 167.18060303 C18.69339057 167.2481544 13.87182713 167.32184539 9.05026245 167.39935303 C7.37674461 167.41971619 7.37674461 167.41971619 5.66941833 167.44049072 C4.63502121 167.45720825 3.60062408 167.47392578 2.53488159 167.4911499 C1.62380142 167.50367798 0.71272125 167.51620605 -0.22596741 167.52911377 C-2.70549099 167.59231332 -2.70549099 167.59231332 -5.5473938 168.68060303 C-5.5473938 178.91060303 -5.5473938 189.14060303 -5.5473938 199.68060303 C-4.8873938 199.68060303 -4.2273938 199.68060303 -3.5473938 199.68060303 C-0.93975709 203.51536289 -1.89729714 206.24490951 -2.5473938 210.68060303 C-2.73556168 213.72304889 -2.77717707 216.75793155 -2.7973938 219.80560303 C-2.8180188 220.59064209 -2.8386438 221.37568115 -2.8598938 222.18450928 C-2.89211751 226.96167443 -2.38192028 229.6741793 0.4526062 233.68060303 C0.95758484 237.21545349 0.98678439 238.90159317 -1.0473938 241.86810303 C-11.19494093 249.2250747 -25.55498518 248.83834454 -37.45755005 247.11419678 C-43.04925276 245.99115238 -47.81927526 245.00052742 -52.5473938 241.68060303 C-53.95740044 238.86058975 -53.7928783 236.81053048 -53.5473938 233.68060303 C-53.06399536 232.95486084 -52.58059692 232.22911865 -52.08255005 231.48138428 C-50.13108169 227.92107177 -49.9143405 224.65040341 -49.7348938 220.68060303 C-49.68397583 219.98193115 -49.63305786 219.28325928 -49.58059692 218.56341553 C-49.34623385 214.35282467 -49.86053603 211.50103584 -51.5473938 207.68060303 C-51.1723938 203.86810303 -51.1723938 203.86810303 -50.5473938 200.68060303 C-49.5573938 200.35060303 -48.5673938 200.02060303 -47.5473938 199.68060303 C-47.64085693 195.44436761 -47.74693293 191.20869452 -47.86477661 186.9730835 C-47.90309054 185.53176563 -47.93793923 184.09035135 -47.9692688 182.64886475 C-48.01486826 180.57836417 -48.07286824 178.5085287 -48.1333313 176.43841553 C-48.1647522 175.19205322 -48.1961731 173.94569092 -48.22854614 172.66156006 C-48.24421689 169.56518526 -48.24421689 169.56518526 -50.5473938 167.68060303 C-52.82330358 167.37721227 -52.82330358 167.37721227 -55.48440552 167.42523193 C-56.51242279 167.41827301 -57.54044006 167.41131409 -58.59960938 167.40414429 C-59.71417511 167.4051413 -60.82874084 167.40613831 -61.9770813 167.40716553 C-64.32213815 167.38687624 -66.6671902 167.36602545 -69.01223755 167.34466553 C-72.7211003 167.32204751 -76.42977382 167.30559139 -80.13870239 167.29974365 C-83.71017955 167.29024125 -87.28079611 167.25648679 -90.8520813 167.21966553 C-92.51785721 167.22723373 -92.51785721 167.22723373 -94.21728516 167.23495483 C-95.76876755 167.21505997 -95.76876755 167.21505997 -97.35159302 167.19476318 C-98.26045258 167.19191315 -99.16931213 167.18906311 -100.10571289 167.18612671 C-103.30343834 166.52407216 -104.49089341 165.15733836 -106.5473938 162.68060303 C-110.45855093 154.85828876 -106.52324236 142.95407748 -105.1723938 134.68060303 C-102.3350534 117.11123364 -100.42171572 99.55227471 -99.1098938 81.80560303 C-99.0473642 80.98562836 -98.98483459 80.16565369 -98.92041016 79.3208313 C-98.06715947 68.11777094 -97.38406297 56.91410466 -96.8286438 45.69232178 C-96.7069173 43.31259662 -96.58509144 40.93287655 -96.46316528 38.55316162 C-96.22544306 33.89662872 -96.01298517 29.23978133 -95.81326294 24.58148193 C-95.70597622 22.43348921 -95.59786184 20.28553761 -95.48880005 18.13763428 C-95.45335083 17.15292648 -95.41790161 16.16821869 -95.38137817 15.15367126 C-95.1545713 11.02793866 -94.87068054 8.27440366 -92.87380981 4.60662842 C-85.26899954 -1.68934684 -68.80877922 0.24890887 -59.1723938 0.05560303 C-57.56358198 0.01828359 -55.95477668 -0.01931778 -54.34597778 -0.05718994 C-36.21952428 -0.46634331 -18.12577253 -0.41687875 0 0 Z " fill="#FAFAFA" transform="translate(163.54739379882813,11.31939697265625)"/>
<path d="M0 0 C1.60271112 0.03633506 3.20547553 0.07040858 4.80828857 0.10192871 C33.75277718 0.69151382 33.75277718 0.69151382 38.33151245 4.06488037 C40.26414596 6.85019583 40.60114838 9.50122141 40.77804565 12.78924561 C40.82529282 13.62334961 40.87253998 14.45745361 40.92121887 15.3168335 C40.9689595 16.22707275 41.01670013 17.13731201 41.06588745 18.07513428 C41.17804664 20.05993362 41.29052897 22.04471473 41.40328979 24.02947998 C41.46184143 25.08156647 41.52039307 26.13365295 41.58071899 27.21762085 C43.77354409 66.17129692 46.99834796 104.84018381 53.03439331 143.39691162 C53.21494263 144.55142822 53.39549194 145.70594482 53.58151245 146.89544678 C53.7420813 147.90599121 53.90265015 148.91653564 54.06808472 149.95770264 C54.76387826 154.88480444 55.24658661 158.98437215 53.0776062 163.61810303 C51.4526062 165.68060303 51.4526062 165.68060303 49.4526062 166.68060303 C47.80436131 166.79438654 46.15173653 166.84731983 44.49972534 166.87005615 C43.46848038 166.88677368 42.43723541 166.90349121 41.3747406 166.92071533 C40.25703781 166.93429077 39.13933502 166.94786621 37.98776245 166.96185303 C36.84351303 166.98026245 35.69926361 166.99867188 34.52033997 167.01763916 C30.85198216 167.07653019 27.18357728 167.12928232 23.5151062 167.18060303 C18.69339057 167.2481544 13.87182713 167.32184539 9.05026245 167.39935303 C7.37674461 167.41971619 7.37674461 167.41971619 5.66941833 167.44049072 C4.63502121 167.45720825 3.60062408 167.47392578 2.53488159 167.4911499 C1.62380142 167.50367798 0.71272125 167.51620605 -0.22596741 167.52911377 C-2.70549099 167.59231332 -2.70549099 167.59231332 -5.5473938 168.68060303 C-5.5473938 178.91060303 -5.5473938 189.14060303 -5.5473938 199.68060303 C-4.8873938 199.68060303 -4.2273938 199.68060303 -3.5473938 199.68060303 C-0.93975709 203.51536289 -1.89729714 206.24490951 -2.5473938 210.68060303 C-2.73556168 213.72304889 -2.77717707 216.75793155 -2.7973938 219.80560303 C-2.8180188 220.59064209 -2.8386438 221.37568115 -2.8598938 222.18450928 C-2.89211751 226.96167443 -2.38192028 229.6741793 0.4526062 233.68060303 C0.95758484 237.21545349 0.98678439 238.90159317 -1.0473938 241.86810303 C-11.19494093 249.2250747 -25.55498518 248.83834454 -37.45755005 247.11419678 C-43.04925276 245.99115238 -47.81927526 245.00052742 -52.5473938 241.68060303 C-53.95740044 238.86058975 -53.7928783 236.81053048 -53.5473938 233.68060303 C-53.06399536 232.95486084 -52.58059692 232.22911865 -52.08255005 231.48138428 C-50.13108169 227.92107177 -49.9143405 224.65040341 -49.7348938 220.68060303 C-49.68397583 219.98193115 -49.63305786 219.28325928 -49.58059692 218.56341553 C-49.34623385 214.35282467 -49.86053603 211.50103584 -51.5473938 207.68060303 C-51.1723938 203.86810303 -51.1723938 203.86810303 -50.5473938 200.68060303 C-49.5573938 200.35060303 -48.5673938 200.02060303 -47.5473938 199.68060303 C-47.64085693 195.44436761 -47.74693293 191.20869452 -47.86477661 186.9730835 C-47.90309054 185.53176563 -47.93793923 184.09035135 -47.9692688 182.64886475 C-48.01486826 180.57836417 -48.07286824 178.5085287 -48.1333313 176.43841553 C-48.1647522 175.19205322 -48.1961731 173.94569092 -48.22854614 172.66156006 C-48.24421689 169.56518526 -48.24421689 169.56518526 -50.5473938 167.68060303 C-52.82330358 167.37721227 -52.82330358 167.37721227 -55.48440552 167.42523193 C-56.51242279 167.41827301 -57.54044006 167.41131409 -58.59960938 167.40414429 C-59.71417511 167.4051413 -60.82874084 167.40613831 -61.9770813 167.40716553 C-64.32213815 167.38687624 -66.6671902 167.36602545 -69.01223755 167.34466553 C-72.7211003 167.32204751 -76.42977382 167.30559139 -80.13870239 167.29974365 C-83.71017955 167.29024125 -87.28079611 167.25648679 -90.8520813 167.21966553 C-92.51785721 167.22723373 -92.51785721 167.22723373 -94.21728516 167.23495483 C-95.76876755 167.21505997 -95.76876755 167.21505997 -97.35159302 167.19476318 C-98.26045258 167.19191315 -99.16931213 167.18906311 -100.10571289 167.18612671 C-103.30343834 166.52407216 -104.49089341 165.15733836 -106.5473938 162.68060303 C-110.45855093 154.85828876 -106.52324236 142.95407748 -105.1723938 134.68060303 C-102.3350534 117.11123364 -100.42171572 99.55227471 -99.1098938 81.80560303 C-99.0473642 80.98562836 -98.98483459 80.16565369 -98.92041016 79.3208313 C-98.06715947 68.11777094 -97.38406297 56.91410466 -96.8286438 45.69232178 C-96.7069173 43.31259662 -96.58509144 40.93287655 -96.46316528 38.55316162 C-96.22544306 33.89662872 -96.01298517 29.23978133 -95.81326294 24.58148193 C-95.70597622 22.43348921 -95.59786184 20.28553761 -95.48880005 18.13763428 C-95.45335083 17.15292648 -95.41790161 16.16821869 -95.38137817 15.15367126 C-95.1545713 11.02793866 -94.87068054 8.27440366 -92.87380981 4.60662842 C-85.26899954 -1.68934684 -68.80877922 0.24890887 -59.1723938 0.05560303 C-57.56358198 0.01828359 -55.95477668 -0.01931778 -54.34597778 -0.05718994 C-36.21952428 -0.46634331 -18.12577253 -0.41687875 0 0 Z M-77.7036438 6.06341553 C-78.70858887 6.09377899 -79.71353394 6.12414246 -80.74893188 6.15542603 C-82.08486389 6.212603 -82.08486389 6.212603 -83.44778442 6.27093506 C-84.57827209 6.31687302 -84.57827209 6.31687302 -85.7315979 6.36373901 C-87.79455325 6.54441308 -87.79455325 6.54441308 -89.5473938 8.68060303 C-89.92588238 10.54979687 -89.92588238 10.54979687 -89.98635864 12.71990967 C-90.03351517 13.56442688 -90.08067169 14.40894409 -90.1292572 15.27905273 C-90.17185165 16.20691589 -90.21444611 17.13477905 -90.2583313 18.09075928 C-90.31119797 19.06543152 -90.36406464 20.04010376 -90.41853333 21.04431152 C-90.53330124 23.16422204 -90.64421353 25.28434394 -90.75177002 27.40463257 C-91.04162839 33.07607884 -91.36591254 38.74551084 -91.69192505 44.41497803 C-91.75905197 45.58676102 -91.82617889 46.75854401 -91.89533997 47.96583557 C-92.62787443 60.48892071 -93.58918189 72.99064385 -94.6098938 85.49310303 C-94.69189026 86.52114044 -94.77388672 87.54917786 -94.85836792 88.60836792 C-95.63930569 98.36675862 -96.45499482 108.05627217 -98.072052 117.71844482 C-98.9485759 123.18062479 -99.50577539 128.68280588 -100.1098938 134.18060303 C-100.35922849 136.44123755 -100.61045728 138.70166417 -100.86380005 140.96185303 C-100.97151733 141.94218506 -101.07923462 142.92251709 -101.19021606 143.93255615 C-101.53024997 146.54870218 -102.01988665 149.09700747 -102.5473938 151.68060303 C-102.71003114 154.37846952 -102.63771615 156.97093248 -102.5473938 159.68060303 C-100.90338695 161.32460988 -99.00474987 160.81375472 -96.73977661 160.82244873 C-95.20247894 160.83300041 -95.20247894 160.83300041 -93.63412476 160.84376526 C-92.51753479 160.84792953 -91.40094482 160.85209381 -90.2505188 160.85638428 C-87.90675985 160.87958602 -85.56300982 160.9037035 -83.2192688 160.9286499 C-79.50827101 160.96376588 -75.79759997 160.99310228 -72.0864563 161.00653076 C-68.51573644 161.02199563 -64.94598367 161.062205 -61.3755188 161.10638428 C-59.71277924 161.10352165 -59.71277924 161.10352165 -58.01644897 161.1006012 C-50.34620208 161.22252192 -50.34620208 161.22252192 -46.43313599 163.4664917 C-42.87182893 167.64793832 -42.28893857 170.47935433 -42.1333313 175.97747803 C-42.07532349 177.78538818 -42.07532349 177.78538818 -42.0161438 179.62982178 C-41.9852063 180.88407959 -41.9542688 182.1383374 -41.9223938 183.43060303 C-41.86438599 185.33519287 -41.86438599 185.33519287 -41.8052063 187.27825928 C-41.71095158 190.41222872 -41.62534214 193.54619251 -41.5473938 196.68060303 C-39.18786286 194.32107209 -39.05597967 192.90164685 -38.5473938 189.68060303 C-37.2273938 189.68060303 -35.9073938 189.68060303 -34.5473938 189.68060303 C-34.0523938 193.14560303 -34.0523938 193.14560303 -33.5473938 196.68060303 C-29.9173938 196.68060303 -26.2873938 196.68060303 -22.5473938 196.68060303 C-22.5473938 196.02060303 -22.5473938 195.36060303 -22.5473938 194.68060303 C-21.5573938 194.68060303 -20.5673938 194.68060303 -19.5473938 194.68060303 C-19.8773938 193.69060303 -20.2073938 192.70060303 -20.5473938 191.68060303 C-18.2373938 191.68060303 -15.9273938 191.68060303 -13.5473938 191.68060303 C-13.5473938 193.66060303 -13.5473938 195.64060303 -13.5473938 197.68060303 C-12.8873938 198.01060303 -12.2273938 198.34060303 -11.5473938 198.68060303 C-11.5473938 194.72060303 -11.5473938 190.76060303 -11.5473938 186.68060303 C-12.2073938 187.01060303 -12.8673938 187.34060303 -13.5473938 187.68060303 C-13.5473938 188.34060303 -13.5473938 189.00060303 -13.5473938 189.68060303 C-14.3105188 189.35060303 -15.0736438 189.02060303 -15.8598938 188.68060303 C-18.53808515 187.50623617 -18.53808515 187.50623617 -21.5473938 187.68060303 C-21.5473938 186.69060303 -21.5473938 185.70060303 -21.5473938 184.68060303 C-20.5573938 184.68060303 -19.5673938 184.68060303 -18.5473938 184.68060303 C-18.5473938 184.02060303 -18.5473938 183.36060303 -18.5473938 182.68060303 C-19.5373938 182.68060303 -20.5273938 182.68060303 -21.5473938 182.68060303 C-21.5473938 182.02060303 -21.5473938 181.36060303 -21.5473938 180.68060303 C-19.8973938 180.68060303 -18.2473938 180.68060303 -16.5473938 180.68060303 C-16.5473938 180.02060303 -16.5473938 179.36060303 -16.5473938 178.68060303 C-18.1973938 178.68060303 -19.8473938 178.68060303 -21.5473938 178.68060303 C-21.5473938 178.02060303 -21.5473938 177.36060303 -21.5473938 176.68060303 C-18.1930627 177.62994202 -14.85492875 178.57809138 -11.5473938 179.68060303 C-11.53321411 178.9561499 -11.51903442 178.23169678 -11.50442505 177.48529053 C-11.17437057 170.794997 -10.51046706 167.28052459 -5.5473938 162.68060303 C-3.08373957 161.44877591 -1.41012069 161.52956919 1.34542847 161.4911499 C2.36310806 161.47443237 3.38078766 161.45771484 4.42930603 161.44049072 C6.08246071 161.42012756 6.08246071 161.42012756 7.76901245 161.39935303 C8.89580917 161.3809436 10.0226059 161.36253418 11.18354797 161.34356689 C16.02142575 161.26465601 20.85944661 161.19699971 25.69747925 161.12835693 C29.22139693 161.07677471 32.7451892 161.01947361 36.26901245 160.96185303 C37.3731398 160.94827759 38.47726715 160.93470215 39.61485291 160.92071533 C41.13664406 160.89563904 41.13664406 160.89563904 42.68917847 160.87005615 C43.58693497 160.85752808 44.48469147 160.845 45.40965271 160.83209229 C47.44623772 160.90459846 47.44623772 160.90459846 48.4526062 159.68060303 C49.0573662 151.19840942 47.97079529 142.97483049 46.6401062 134.61810303 C43.21284636 112.78765803 41.15489344 90.82482836 39.63101196 68.78738403 C39.38377046 65.21403331 39.12911736 61.64126848 38.87301636 58.06854248 C38.15207463 47.96369304 37.45198096 37.85806528 36.82369995 27.74700928 C36.73594914 26.36403031 36.64814316 24.98105484 36.56027222 23.5980835 C36.41006787 21.19008561 36.26803516 18.78155759 36.13595581 16.37249756 C36.07287231 15.35397705 36.00978882 14.33545654 35.9447937 13.28607178 C35.89693726 12.43166504 35.84908081 11.5772583 35.79977417 10.69696045 C35.61374517 8.45716066 35.61374517 8.45716066 33.4526062 6.68060303 C27.73048773 5.42166637 21.67636815 5.53528738 15.84127808 5.5512085 C14.62670174 5.54858002 14.62670174 5.54858002 13.3875885 5.54589844 C10.73215534 5.54152896 8.07678996 5.54440503 5.4213562 5.54779053 C3.54354846 5.54711504 1.6657408 5.54614299 -0.21206665 5.54489136 C-4.1492089 5.5434201 -8.08632842 5.54554666 -12.02346802 5.55023193 C-16.99321329 5.55586668 -21.96290438 5.55258004 -26.93264771 5.54681015 C-52.32215945 5.5030756 -52.32215945 5.5030756 -77.7036438 6.06341553 Z " fill="#27080B" transform="translate(163.54739379882813,11.31939697265625)"/>
<path d="M0 0 C4.16991855 4.03540505 5.11165662 5.87257284 5.31640625 11.6640625 C5.35830078 12.78554687 5.40019531 13.90703125 5.44335938 15.0625 C5.48267578 16.238125 5.52199219 17.41375 5.5625 18.625 C5.60568359 19.80835938 5.64886719 20.99171875 5.69335938 22.2109375 C5.79967426 25.14050328 5.90170642 28.07015588 6 31 C6.66 29.02 7.32 27.04 8 25 C9.65 25.33 11.3 25.66 13 26 C13 28.31 13 30.62 13 33 C16.63 33 20.26 33 24 33 C24 32.34 24 31.68 24 31 C24.99 31 25.98 31 27 31 C26.01 29.02 26.01 29.02 25 27 C30.75 26.875 30.75 26.875 33 28 C33.33333333 30 33.66666667 32 34 34 C34.66 34.33 35.32 34.66 36 35 C36 25.43 36 15.86 36 6 C37.32 5.34 38.64 4.68 40 4 C40 15.55 40 27.1 40 39 C41.485 39.495 41.485 39.495 43 40 C43 41.65 43 43.3 43 45 C42.34 45 41.68 45 41 45 C41.13883419 48.43782031 41.28727054 51.87516029 41.4375 55.3125 C41.47681641 56.28896484 41.51613281 57.26542969 41.55664062 58.27148438 C41.59853516 59.20927734 41.64042969 60.14707031 41.68359375 61.11328125 C41.72025146 61.97735596 41.75690918 62.84143066 41.79467773 63.73168945 C41.92747354 66.1647826 41.92747354 66.1647826 43 69 C43.66 69 44.32 69 45 69 C45.99 72.465 45.99 72.465 47 76 C42.04571187 81.98643149 35.41018558 83.12682527 28 84 C16.71964467 84.65981831 3.6008702 84.74140525 -6 78 C-7.41000664 75.17998673 -7.24548451 73.12992745 -7 70 C-6.51660156 69.27425781 -6.03320312 68.54851562 -5.53515625 67.80078125 C-3.58368789 64.24046874 -3.3669467 60.96980038 -3.1875 57 C-3.13658203 56.30132812 -3.08566406 55.60265625 -3.03320312 54.8828125 C-2.79884005 50.67222165 -3.31314223 47.82043281 -5 44 C-4.625 40.1875 -4.625 40.1875 -4 37 C-3.01 36.67 -2.02 36.34 -1 36 C-1.09346313 31.76376458 -1.19953913 27.52809149 -1.31738281 23.29248047 C-1.35569674 21.8511626 -1.39054543 20.40974832 -1.421875 18.96826172 C-1.46747446 16.89776114 -1.52547444 14.82792567 -1.5859375 12.7578125 C-1.6173584 11.5114502 -1.6487793 10.26508789 -1.68115234 8.98095703 C-1.69682309 5.88458224 -1.69682309 5.88458224 -4 4 C-6.30338802 3.66898466 -6.30338802 3.66898466 -9.00048828 3.68115234 C-10.56188034 3.65134781 -10.56188034 3.65134781 -12.15481567 3.62094116 C-13.8454866 3.60361435 -13.8454866 3.60361435 -15.5703125 3.5859375 C-16.72167694 3.56657135 -17.87304138 3.5472052 -19.05929565 3.5272522 C-22.74778769 3.46732628 -26.43631072 3.42101874 -30.125 3.375 C-32.62110759 3.33683223 -35.11720185 3.29778122 -37.61328125 3.2578125 C-43.74206937 3.16161412 -49.87093738 3.07660494 -56 3 C-56 2.34 -56 1.68 -56 1 C-48.34619856 0.97471097 -40.69240783 0.95715896 -33.03857422 0.94506836 C-30.43310137 0.9400297 -27.82763137 0.9331987 -25.22216797 0.92456055 C-21.48404236 0.91247456 -17.74595403 0.90676712 -14.0078125 0.90234375 C-12.83695099 0.89718246 -11.66608948 0.89202118 -10.45974731 0.88670349 C-8.838293 0.88659019 -8.838293 0.88659019 -7.18408203 0.88647461 C-6.22921906 0.884254 -5.27435608 0.88203339 -4.29055786 0.87974548 C-2 1 -2 1 0 2 C0 1.34 0 0.68 0 0 Z " fill="#040202" transform="translate(117,175)"/>
<path d="M0 0 C0.33 0.99 0.66 1.98 1 3 C-7.80903451 3.90324707 -16.57684453 4.18049366 -25.42308426 4.26036072 C-27.78979832 4.28182346 -30.15639829 4.30880422 -32.52304077 4.33703613 C-37.55698044 4.39612507 -42.59097796 4.44848223 -47.625 4.5 C-53.44938712 4.55988186 -59.27371845 4.62272534 -65.09800339 4.69187927 C-67.39398013 4.71781706 -69.68996504 4.73901025 -71.98599243 4.7598877 C-79.56974112 4.8397455 -87.14427917 5.03302122 -94.72021484 5.39257812 C-95.46083979 5.42236504 -96.20146473 5.45215195 -96.96453285 5.48284149 C-101.28753565 5.71235684 -104.96383339 6.43588434 -109 8 C-109.10489746 9.88706665 -109.10489746 9.88706665 -109.21191406 11.81225586 C-110.5758914 36.16582078 -112.09176195 60.49979366 -114.0625 84.8125 C-114.14431519 85.84035614 -114.22613037 86.86821228 -114.3104248 87.92721558 C-115.09155198 97.68572015 -115.90758283 107.37556047 -117.5246582 117.0378418 C-118.4011821 122.50002177 -118.95838159 128.00220286 -119.5625 133.5 C-119.81183469 135.76063453 -120.06306348 138.02106114 -120.31640625 140.28125 C-120.42412354 141.26158203 -120.53184082 142.24191406 -120.64282227 143.25195312 C-121 146 -121 146 -121.54272461 148.35742188 C-122.16333275 151.94389415 -122.0616716 155.36137548 -122 159 C-121.35520187 159.00586624 -120.71040375 159.01173248 -120.04606628 159.01777649 C-113.34641816 159.08161638 -106.6472546 159.16601147 -99.94799805 159.26245117 C-97.44643535 159.29574471 -94.94479673 159.32376268 -92.44311523 159.34643555 C-88.85106998 159.3798996 -85.25972334 159.43221243 -81.66796875 159.48828125 C-80.54601608 159.49467117 -79.42406342 159.5010611 -78.26811218 159.50764465 C-76.70683342 159.53733589 -76.70683342 159.53733589 -75.11401367 159.56762695 C-74.19690109 159.57873001 -73.27978851 159.58983307 -72.33488464 159.60127258 C-69.57400235 160.07274747 -68.64826273 160.76860123 -67 163 C-67 163.66 -67 164.32 -67 165 C-74.51024979 165.11582029 -82.02040709 165.20467737 -89.53134632 165.25906086 C-93.01902101 165.28516211 -96.50608503 165.32056666 -99.9934082 165.37719727 C-104.00217567 165.44188862 -108.0103012 165.46617566 -112.01953125 165.48828125 C-113.27272659 165.51408768 -114.52592194 165.5398941 -115.8170929 165.56648254 C-116.97806992 165.5668602 -118.13904694 165.56723785 -119.33520508 165.56762695 C-120.35890701 165.57873001 -121.38260895 165.58983307 -122.43733215 165.60127258 C-125 165 -125 165 -126.83052063 162.59660339 C-130.67171702 154.06796763 -127.07742407 142.8955889 -125.625 134 C-122.7876596 116.43063061 -120.87432193 98.87167168 -119.5625 81.125 C-119.4999704 80.30502533 -119.4374408 79.48505066 -119.37301636 78.64022827 C-118.51976567 67.43716791 -117.83666917 56.23350163 -117.28125 45.01171875 C-117.1595235 42.6319936 -117.03769764 40.25227353 -116.91577148 37.87255859 C-116.67804926 33.21602569 -116.46559137 28.5591783 -116.26586914 23.90087891 C-116.15858242 21.75288618 -116.05046804 19.60493458 -115.94140625 17.45703125 C-115.90595703 16.47232346 -115.87050781 15.48761566 -115.83398438 14.47306824 C-115.6071775 10.34733564 -115.32328674 7.59380063 -113.32641602 3.92602539 C-105.72160574 -2.36994987 -89.26138542 -0.43169416 -79.625 -0.625 C-78.01618818 -0.66231944 -76.40738288 -0.69992081 -74.79858398 -0.73779297 C-49.83747977 -1.30121922 -24.95021924 -0.75949502 0 0 Z " fill="#240708" transform="translate(184,12)"/>
<path d="M0 0 C0.65452148 -0.00191345 1.30904297 -0.0038269 1.98339844 -0.00579834 C3.36523829 -0.00715745 4.74709103 -0.00348013 6.12890625 0.00488281 C8.2424796 0.01558691 10.35520305 0.00497899 12.46875 -0.0078125 C13.81250187 -0.00649086 15.15625322 -0.00392836 16.5 0 C17.72203125 0.00225586 18.9440625 0.00451172 20.203125 0.00683594 C23.25 0.265625 23.25 0.265625 26.25 2.265625 C26.63476562 4.1574707 26.63476562 4.1574707 26.65625 6.44140625 C26.67816406 7.26962891 26.70007813 8.09785156 26.72265625 8.95117188 C26.73167969 9.81806641 26.74070313 10.68496094 26.75 11.578125 C26.80891394 19.37305328 26.80891394 19.37305328 30.25 26.265625 C29.9375 29.078125 29.9375 29.078125 29.25 31.265625 C24.74646738 33.02310114 21.07360189 33.45856908 16.25 33.265625 C16.25 32.935625 16.25 32.605625 16.25 32.265625 C14.97382813 32.20503906 13.69765625 32.14445312 12.3828125 32.08203125 C10.71352984 31.99762932 9.04425963 31.91298114 7.375 31.828125 C6.53324219 31.78880859 5.69148438 31.74949219 4.82421875 31.70898438 C3.61572266 31.64614258 3.61572266 31.64614258 2.3828125 31.58203125 C1.63918457 31.54537354 0.89555664 31.50871582 0.12939453 31.47094727 C-1.75 31.265625 -1.75 31.265625 -3.75 30.265625 C-3.75 29.605625 -3.75 28.945625 -3.75 28.265625 C5.16 28.265625 14.07 28.265625 23.25 28.265625 C16.89708818 26.42449475 16.89708818 26.42449475 10.7109375 26.03515625 C9.71835938 26.03708984 8.72578125 26.03902344 7.703125 26.04101562 C6.17945313 26.05938477 6.17945313 26.05938477 4.625 26.078125 C3.08972656 26.0790918 3.08972656 26.0790918 1.5234375 26.08007812 C-5.17896138 26.08038313 -5.17896138 26.08038313 -11.75 27.265625 C-12.08 27.925625 -12.41 28.585625 -12.75 29.265625 C-12.95086443 25.54963309 -12.9019437 24.49354055 -10.75 21.265625 C-10.43351945 19.17337408 -10.43351945 19.17337408 -10.44140625 16.88671875 C-10.41626953 16.04818359 -10.39113281 15.20964844 -10.36523438 14.34570312 C-10.33000167 12.58015311 -10.29876878 10.81451886 -10.27148438 9.04882812 C-10.24505859 8.21158203 -10.21863281 7.37433594 -10.19140625 6.51171875 C-10.17122437 5.36207642 -10.17122437 5.36207642 -10.15063477 4.18920898 C-9.11672224 -0.77495726 -4.01341917 0.00740874 0 0 Z " fill="#F4F4F4" transform="translate(128.75,219.734375)"/>
<path d="M0 0 C4.98799693 0.00575993 9.97594076 0.00236335 14.96393585 -0.00357246 C18.84853514 -0.00719256 22.73312188 -0.0060339 26.61772156 -0.00344467 C28.45798245 -0.00278269 30.29824451 -0.00357802 32.13850403 -0.00592422 C34.70125348 -0.00848184 37.26391706 -0.0045695 39.82666016 0.00097656 C40.5685408 -0.00104767 41.31042145 -0.0030719 42.07478333 -0.00515747 C56.35933021 0.05171302 56.35933021 0.05171302 59.43798828 3.13037109 C59.75683594 5.28515625 59.75683594 5.28515625 59.85205078 7.91943359 C59.89072266 8.86044922 59.92939453 9.80146484 59.96923828 10.77099609 C60.00017578 11.75583984 60.03111328 12.74068359 60.06298828 13.75537109 C60.10166016 14.74794922 60.14033203 15.74052734 60.18017578 16.76318359 C60.27461968 19.21872494 60.36018703 21.67425519 60.43798828 24.13037109 C58.95298828 24.62537109 58.95298828 24.62537109 57.43798828 25.13037109 C56.44798828 21.83037109 55.45798828 18.53037109 54.43798828 15.13037109 C53.77798828 15.13037109 53.11798828 15.13037109 52.43798828 15.13037109 C51.94298828 13.64537109 51.94298828 13.64537109 51.43798828 12.13037109 C50.77798828 13.45037109 50.11798828 14.77037109 49.43798828 16.13037109 C49.10798828 16.13037109 48.77798828 16.13037109 48.43798828 16.13037109 C48.43798828 14.48037109 48.43798828 12.83037109 48.43798828 11.13037109 C47.44798828 11.46037109 46.45798828 11.79037109 45.43798828 12.13037109 C45.10798828 8.83037109 44.77798828 5.53037109 44.43798828 2.13037109 C43.77798828 2.46037109 43.11798828 2.79037109 42.43798828 3.13037109 C42.43798828 4.78037109 42.43798828 6.43037109 42.43798828 8.13037109 C41.77798828 8.13037109 41.11798828 8.13037109 40.43798828 8.13037109 C40.43798828 5.82037109 40.43798828 3.51037109 40.43798828 1.13037109 C30.20798828 1.13037109 19.97798828 1.13037109 9.43798828 1.13037109 C9.43798828 3.11037109 9.43798828 5.09037109 9.43798828 7.13037109 C8.06298828 8.88037109 8.06298828 8.88037109 6.43798828 10.13037109 C5.77798828 10.79037109 5.11798828 11.45037109 4.43798828 12.13037109 C4.43798828 8.83037109 4.43798828 5.53037109 4.43798828 2.13037109 C-1.00701172 1.63537109 -1.00701172 1.63537109 -6.56201172 1.13037109 C-6.56201172 6.41037109 -6.56201172 11.69037109 -6.56201172 17.13037109 C-6.89201172 17.13037109 -7.22201172 17.13037109 -7.56201172 17.13037109 C-8.22201172 13.17037109 -8.88201172 9.21037109 -9.56201172 5.13037109 C-9.89201172 7.77037109 -10.22201172 10.41037109 -10.56201172 13.13037109 C-11.22201172 13.13037109 -11.88201172 13.13037109 -12.56201172 13.13037109 C-13.05701172 7.19037109 -13.05701172 7.19037109 -13.56201172 1.13037109 C-23.95701172 1.62537109 -23.95701172 1.62537109 -34.56201172 2.13037109 C-33.90201172 3.78037109 -33.24201172 5.43037109 -32.56201172 7.13037109 C-33.55201172 6.80037109 -34.54201172 6.47037109 -35.56201172 6.13037109 C-36.55201172 7.45037109 -37.54201172 8.77037109 -38.56201172 10.13037109 C-38.56201172 7.49037109 -38.56201172 4.85037109 -38.56201172 2.13037109 C-39.22201172 2.13037109 -39.88201172 2.13037109 -40.56201172 2.13037109 C-40.56201172 7.08037109 -40.56201172 12.03037109 -40.56201172 17.13037109 C-41.22201172 16.80037109 -41.88201172 16.47037109 -42.56201172 16.13037109 C-42.56201172 11.51037109 -42.56201172 6.89037109 -42.56201172 2.13037109 C-44.87201172 2.46037109 -47.18201172 2.79037109 -49.56201172 3.13037109 C-49.55041016 4.06236328 -49.53880859 4.99435547 -49.52685547 5.95458984 C-49.46705813 14.40310009 -49.7668321 22.70998691 -50.56201172 31.13037109 C-50.89201172 31.13037109 -51.22201172 31.13037109 -51.56201172 31.13037109 C-51.62259766 30.05916016 -51.68318359 28.98794922 -51.74560547 27.88427734 C-51.82999709 26.48712718 -51.91464577 25.08999253 -51.99951172 23.69287109 C-52.03882812 22.98582031 -52.07814453 22.27876953 -52.11865234 21.55029297 C-52.0382561 18.0434669 -52.0382561 18.0434669 -53.56201172 15.13037109 C-54.22201172 22.39037109 -54.88201172 29.65037109 -55.56201172 37.13037109 C-56.22201172 37.13037109 -56.88201172 37.13037109 -57.56201172 37.13037109 C-57.89201172 32.84037109 -58.22201172 28.55037109 -58.56201172 24.13037109 C-59.88201172 35.35037109 -61.20201172 46.57037109 -62.56201172 58.13037109 C-62.89201172 58.13037109 -63.22201172 58.13037109 -63.56201172 58.13037109 C-63.61207056 48.01570417 -63.51630748 37.9131214 -63.24462891 27.80200195 C-63.20580441 26.2965658 -63.17105755 24.79101962 -63.14013672 23.28540039 C-63.094379 21.06543614 -63.0365656 18.84607076 -62.97607422 16.62646484 C-62.94465332 15.32894287 -62.91323242 14.0314209 -62.88085938 12.69458008 C-62.56867514 9.20485754 -61.8158656 6.38881993 -60.56201172 3.13037109 C-61.88201172 2.80037109 -63.20201172 2.47037109 -64.56201172 2.13037109 C-62.25812076 -0.17351987 -56.86086859 0.69344518 -53.78076172 0.57568359 C-52.15201111 0.5126152 -52.15201111 0.5126152 -50.49035645 0.44827271 C-33.66766136 -0.11875406 -16.83001948 -0.01962693 0 0 Z " fill="#9C9C9C" transform="translate(139.56201171875,16.86962890625)"/>
<path d="M0 0 C0.33 0 0.66 0 1 0 C1.10557522 7.49265184 0.81769816 14.87031925 0.1953125 22.3359375 C0.11127167 23.37714752 0.02723083 24.41835754 -0.05935669 25.49111938 C-0.23708114 27.67785301 -0.41703103 29.86440682 -0.59912109 32.05078125 C-0.87366053 35.35885994 -1.13847334 38.66761768 -1.40234375 41.9765625 C-2.16884666 51.41037603 -2.94907977 60.78468195 -4.53125 70.12353516 C-5.41637902 75.55509252 -5.96154646 81.0310048 -6.5625 86.5 C-6.81183469 88.76063453 -7.06306348 91.02106114 -7.31640625 93.28125 C-7.42412354 94.26158203 -7.53184082 95.24191406 -7.64282227 96.25195312 C-8 99 -8 99 -8.54272461 101.35742188 C-9.16333275 104.94389415 -9.0616716 108.36137548 -9 112 C-8.03280281 112.00879936 -8.03280281 112.00879936 -7.04606628 112.01777649 C-0.34641816 112.08161638 6.3527454 112.16601147 13.05200195 112.26245117 C15.55356465 112.29574471 18.05520327 112.32376268 20.55688477 112.34643555 C24.14893002 112.3798996 27.74027666 112.43221243 31.33203125 112.48828125 C32.45398392 112.49467117 33.57593658 112.5010611 34.73188782 112.50764465 C35.77274033 112.52743881 36.81359283 112.54723297 37.88598633 112.56762695 C38.80309891 112.57873001 39.72021149 112.58983307 40.66511536 112.60127258 C43.42599765 113.07274747 44.35173727 113.76860123 46 116 C46 116.66 46 117.32 46 118 C38.48975021 118.11582029 30.97959291 118.20467737 23.46865368 118.25906086 C19.98097899 118.28516211 16.49391497 118.32056666 13.0065918 118.37719727 C8.99782433 118.44188862 4.9896988 118.46617566 0.98046875 118.48828125 C-0.27272659 118.51408768 -1.52592194 118.5398941 -2.8170929 118.56648254 C-3.97806992 118.5668602 -5.13904694 118.56723785 -6.33520508 118.56762695 C-7.35890701 118.57873001 -8.38260895 118.58983307 -9.43733215 118.60127258 C-12 118 -12 118 -13.82914734 115.59220886 C-17.87577778 106.63317273 -13.69793833 94.27802015 -12 85 C-11.34 85 -10.68 85 -10 85 C-9.855625 83.9275 -9.71125 82.855 -9.5625 81.75 C-9 78 -9 78 -8.49169922 76.2734375 C-7.74883958 72.83872598 -7.70570598 69.37532109 -7.5703125 65.875 C-7.49668607 64.26559779 -7.42244866 62.65622344 -7.34765625 61.046875 C-7.23405228 58.51906383 -7.12466116 55.99132707 -7.02587891 53.46289062 C-6.92829622 51.01618328 -6.81317232 48.57080328 -6.6953125 46.125 C-6.67018585 45.3707373 -6.6450592 44.61647461 -6.61917114 43.83935547 C-6.39221449 39.45040231 -5.61100526 37.41071788 -3 34 C-2.63516872 30.7726659 -2.63516872 30.7726659 -2.8125 27.1875 C-2.82953979 26.21139771 -2.82953979 26.21139771 -2.84692383 25.21557617 C-2.88345746 23.14310046 -2.93931672 21.07190069 -3 19 C-3.07993283 16.27086465 -3.13984474 13.54236879 -3.1875 10.8125 C-3.22230469 9.60207031 -3.25710937 8.39164063 -3.29296875 7.14453125 C-2.97658294 3.74865688 -2.36667645 2.40244486 0 0 Z " fill="#1D1012" transform="translate(71,59)"/>
<path d="M0 0 C4.16991855 4.03540505 5.11165662 5.87257284 5.31640625 11.6640625 C5.35830078 12.78554687 5.40019531 13.90703125 5.44335938 15.0625 C5.48267578 16.238125 5.52199219 17.41375 5.5625 18.625 C5.60568359 19.80835938 5.64886719 20.99171875 5.69335938 22.2109375 C5.79967426 25.14050328 5.90170642 28.07015588 6 31 C6.66 29.02 7.32 27.04 8 25 C9.65 25.33 11.3 25.66 13 26 C13 28.31 13 30.62 13 33 C16.63 33 20.26 33 24 33 C24 32.34 24 31.68 24 31 C24.99 31 25.98 31 27 31 C26.01 29.02 26.01 29.02 25 27 C30.75 26.875 30.75 26.875 33 28 C33 29.32 33 30.64 33 32 C31.35 32.33 29.7 32.66 28 33 C28 33.33 28 33.66 28 34 C20.08 34.33 12.16 34.66 4 35 C3.67 25.1 3.34 15.2 3 5 C2.34 5 1.68 5 1 5 C1 15.89 1 26.78 1 38 C4.3 37.34 7.6 36.68 11 36 C14.28944215 35.82247455 17.46820202 35.71808624 20.75 35.75 C21.56082031 35.74226563 22.37164062 35.73453125 23.20703125 35.7265625 C29.26707813 35.74626997 33.85562242 36.57041495 39 40 C39 41.32 39 42.64 39 44 C33.60653012 44.02464849 28.21309275 44.04283531 22.81958008 44.05493164 C20.98331125 44.05997231 19.14704646 44.06680477 17.31079102 44.07543945 C14.67723599 44.08751672 12.04373384 44.09323081 9.41015625 44.09765625 C8.17109276 44.10539818 8.17109276 44.10539818 6.90699768 44.11329651 C4.93763632 44.11349205 2.96838386 44.06204152 1 44 C0 43 0 43 -0.0625 40.4375 C-0.041875 39.633125 -0.02125 38.82875 0 38 C-0.99 38 -1.98 38 -3 38 C-3 40.64 -3 43.28 -3 46 C-2.34 46 -1.68 46 -1 46 C-1 52.93 -1 59.86 -1 67 C-2.98 67.495 -2.98 67.495 -5 68 C-4.505 66.515 -4.505 66.515 -4 65 C-3.71871134 62.36895653 -3.49072651 59.7627524 -3.3125 57.125 C-3.25255859 56.41730469 -3.19261719 55.70960938 -3.13085938 54.98046875 C-2.84054339 50.70924458 -3.26934961 47.87529949 -5 44 C-4.625 40.1875 -4.625 40.1875 -4 37 C-3.01 36.67 -2.02 36.34 -1 36 C-1.09346313 31.76376458 -1.19953913 27.52809149 -1.31738281 23.29248047 C-1.35569674 21.8511626 -1.39054543 20.40974832 -1.421875 18.96826172 C-1.46747446 16.89776114 -1.52547444 14.82792567 -1.5859375 12.7578125 C-1.6173584 11.5114502 -1.6487793 10.26508789 -1.68115234 8.98095703 C-1.69682309 5.88458224 -1.69682309 5.88458224 -4 4 C-6.30338802 3.66898466 -6.30338802 3.66898466 -9.00048828 3.68115234 C-10.56188034 3.65134781 -10.56188034 3.65134781 -12.15481567 3.62094116 C-13.8454866 3.60361435 -13.8454866 3.60361435 -15.5703125 3.5859375 C-16.72167694 3.56657135 -17.87304138 3.5472052 -19.05929565 3.5272522 C-22.74778769 3.46732628 -26.43631072 3.42101874 -30.125 3.375 C-32.62110759 3.33683223 -35.11720185 3.29778122 -37.61328125 3.2578125 C-43.74206937 3.16161412 -49.87093738 3.07660494 -56 3 C-56 2.34 -56 1.68 -56 1 C-48.34619856 0.97471097 -40.69240783 0.95715896 -33.03857422 0.94506836 C-30.43310137 0.9400297 -27.82763137 0.9331987 -25.22216797 0.92456055 C-21.48404236 0.91247456 -17.74595403 0.90676712 -14.0078125 0.90234375 C-12.83695099 0.89718246 -11.66608948 0.89202118 -10.45974731 0.88670349 C-8.838293 0.88659019 -8.838293 0.88659019 -7.18408203 0.88647461 C-6.22921906 0.884254 -5.27435608 0.88203339 -4.29055786 0.87974548 C-2 1 -2 1 0 2 C0 1.34 0 0.68 0 0 Z " fill="#3F0B0E" transform="translate(117,175)"/>
<path d="M0 0 C0.99 0.33 1.98 0.66 3 1 C3 2.65 3 4.3 3 6 C3.33 4.02 3.66 2.04 4 0 C7.12259437 3.12259437 7.14293342 6.71466712 8 11 C13.94 11.99 13.94 11.99 20 13 C20 13.66 20 14.32 20 15 C15.545 15.495 15.545 15.495 11 16 C14.63 16.33 18.26 16.66 22 17 C22 17.66 22 18.32 22 19 C20.35 19.33 18.7 19.66 17 20 C19.97 20.33 22.94 20.66 26 21 C26 21.99 26 22.98 26 24 C26.99 24.66 27.98 25.32 29 26 C26.08308475 26.05401695 23.16717276 26.09368066 20.25 26.125 C19.425 26.14175781 18.6 26.15851563 17.75 26.17578125 C16.95078125 26.18222656 16.1515625 26.18867188 15.328125 26.1953125 C14.5949707 26.20578613 13.86181641 26.21625977 13.10644531 26.22705078 C10.70103924 25.96777544 9.08748506 25.19225925 7 24 C6.9254828 27.87489459 6.97038079 31.26763038 8 35 C8 36.32 8 37.64 8 39 C7.34 39 6.68 39 6 39 C6.33 40.65 6.66 42.3 7 44 C4.36 43.01 1.72 42.02 -1 41 C-1 40.34 -1 39.68 -1 39 C1.475 38.505 1.475 38.505 4 38 C2.35 37.67 0.7 37.34 -1 37 C-1 34.36 -1 31.72 -1 29 C0.65 28.67 2.3 28.34 4 28 C3.195625 27.62875 2.39125 27.2575 1.5625 26.875 C-1 25 -1 25 -1.8125 21.8125 C-1.9053125 20.4203125 -1.9053125 20.4203125 -2 19 C-1.01 18.67 -0.02 18.34 1 18 C0.34 17.67 -0.32 17.34 -1 17 C-0.814375 16.4225 -0.62875 15.845 -0.4375 15.25 C0.04500232 12.76855951 -0.28296567 11.39011444 -1 9 C-1 5.95799954 -0.44513658 3.00467194 0 0 Z " fill="#A7A7A7" transform="translate(143,144)"/>
<path d="M0 0 C0.99 0 1.98 0 3 0 C3.33 1.65 3.66 3.3 4 5 C4.94319092 4.99476318 5.88638184 4.98952637 6.8581543 4.98413086 C10.37118139 4.96704689 13.88416407 4.95452934 17.3972168 4.94506836 C18.91512755 4.94005234 20.4330335 4.93323797 21.95092773 4.92456055 C24.13787016 4.91237503 26.32474846 4.90674428 28.51171875 4.90234375 C29.82615967 4.89710693 31.14060059 4.89187012 32.49487305 4.88647461 C35.48205125 4.98322448 38.10592611 5.29656236 41 6 C37.32761054 8.44825964 35.584952 8.22006001 31.21484375 8.16015625 C30.22950401 8.1523539 30.22950401 8.1523539 29.22425842 8.14439392 C27.12844593 8.126601 25.03312509 8.09542816 22.9375 8.0625 C20.83835275 8.0348828 18.73927456 8.01017814 16.64002991 7.99131775 C14.7377309 7.97345791 12.83552864 7.9460594 10.93334961 7.91821289 C8.06491466 7.79166296 8.06491466 7.79166296 6 9 C5.970271 9.83978394 5.970271 9.83978394 5.93994141 10.6965332 C5.84462217 13.23565854 5.73497247 15.77396888 5.625 18.3125 C5.57859375 19.63411133 5.57859375 19.63411133 5.53125 20.98242188 C5.47324219 22.25375977 5.47324219 22.25375977 5.4140625 23.55078125 C5.3826416 24.33106689 5.3512207 25.11135254 5.31884766 25.9152832 C5 28 5 28 3 31 C3 31.99 3 32.98 3 34 C3.71841064 33.67620361 4.43682129 33.35240723 5.17700195 33.01879883 C9.78165517 31.35701401 14.33753566 31.67202468 19.1875 31.6875 C20.17814453 31.67138672 21.16878906 31.65527344 22.18945312 31.63867188 C28.941119 31.63424455 34.65778366 32.69080069 41 35 C41 35.33 41 35.66 41 36 C26.15 35.505 26.15 35.505 11 35 C11 35.66 11 36.32 11 37 C18.26 37.33 25.52 37.66 33 38 C33 38.33 33 38.66 33 39 C35.31 39 37.62 39 40 39 C39.505 39.99 39.505 39.99 39 41 C34.80079763 41.04953687 30.60175131 41.08578411 26.40234375 41.10986328 C24.97457922 41.11990427 23.54683517 41.13353981 22.11914062 41.15087891 C20.06375059 41.17521152 18.00863308 41.18650202 15.953125 41.1953125 C14.09929199 41.21102295 14.09929199 41.21102295 12.20800781 41.22705078 C9.18340629 41.01298081 7.53014349 40.59653159 5 39 C5 39.66 5 40.32 5 41 C2.125 40.6875 2.125 40.6875 -1 40 C-3.56687367 36.1496895 -2.83288724 34.41430237 -2 30 C-0.68 29.67 0.64 29.34 2 29 C2 22.07 2 15.14 2 8 C1.34 8 0.68 8 0 8 C-0.79953138 4.71303767 -1.09658936 3.28976808 0 0 Z " fill="#212020" transform="translate(114,213)"/>
<path d="M0 0 C0.495 1.485 0.495 1.485 1 3 C-7.80903451 3.90324707 -16.57684453 4.18049366 -25.42308426 4.26036072 C-27.78979832 4.28182346 -30.15639829 4.30880422 -32.52304077 4.33703613 C-37.55698044 4.39612507 -42.59097796 4.44848223 -47.625 4.5 C-53.44938712 4.55988186 -59.27371845 4.62272534 -65.09800339 4.69187927 C-67.39398013 4.71781706 -69.68996504 4.73901025 -71.98599243 4.7598877 C-79.56974112 4.8397455 -87.14427917 5.03302122 -94.72021484 5.39257812 C-95.46083979 5.42236504 -96.20146473 5.45215195 -96.96453285 5.48284149 C-102.24903893 5.76340464 -107.13825596 6.13825596 -111 10 C-110.67 8.02 -110.34 6.04 -110 4 C-97.625 3.01 -97.625 3.01 -85 2 C-85 1.34 -85 0.68 -85 0 C-56.61481695 -1.4299074 -28.38948647 -0.86418774 0 0 Z " fill="#1D0102" transform="translate(184,12)"/>
<path d="M0 0 C8.71065801 -0.02325092 17.42130521 -0.04097976 26.13198757 -0.05181217 C30.17743978 -0.05701323 34.22287063 -0.06406002 38.26831055 -0.07543945 C42.17811859 -0.08636756 46.0879062 -0.09229772 49.99772835 -0.09487724 C51.48352441 -0.09671371 52.96931946 -0.1002996 54.45510674 -0.10573006 C70.17183202 -0.16084809 70.17183202 -0.16084809 77 1 C79.48057628 3.48057628 79.29019005 4.36192464 79.4140625 7.7890625 C79.45273438 8.73007812 79.49140625 9.67109375 79.53125 10.640625 C79.5621875 11.62546875 79.593125 12.6103125 79.625 13.625 C79.66367188 14.61757813 79.70234375 15.61015625 79.7421875 16.6328125 C79.8366314 19.08835385 79.92219875 21.5438841 80 24 C78.515 24.495 78.515 24.495 77 25 C76.01 21.7 75.02 18.4 74 15 C73.34 15 72.68 15 72 15 C71.505 13.515 71.505 13.515 71 12 C70.34 13.32 69.68 14.64 69 16 C68.67 16 68.34 16 68 16 C68 14.35 68 12.7 68 11 C67.01 11.33 66.02 11.66 65 12 C64.67 8.7 64.34 5.4 64 2 C63.34 2.33 62.68 2.66 62 3 C62 4.65 62 6.3 62 8 C61.34 8 60.68 8 60 8 C60 5.69 60 3.38 60 1 C49.77 1 39.54 1 29 1 C29 2.98 29 4.96 29 7 C27.625 8.75 27.625 8.75 26 10 C25.34 10.66 24.68 11.32 24 12 C24 8.7 24 5.4 24 2 C18.555 1.505 18.555 1.505 13 1 C13 6.28 13 11.56 13 17 C12.67 17 12.34 17 12 17 C11.34 13.04 10.68 9.08 10 5 C9.67 7.64 9.34 10.28 9 13 C8.34 13 7.68 13 7 13 C6.67 9.04 6.34 5.08 6 1 C4.02 1 2.04 1 0 1 C0 0.67 0 0.34 0 0 Z " fill="#C1C1C1" transform="translate(120,17)"/>
<path d="M0 0 C0.66 0.33 1.32 0.66 2 1 C1.67 1.33 1.34 1.66 1 2 C18.82 2.33 36.64 2.66 55 3 C55 3.66 55 4.32 55 5 C54.35520187 5.01030746 53.71040375 5.02061493 53.04606628 5.03123474 C46.34660609 5.13925427 39.64728163 5.25385608 32.94799805 5.37231445 C30.44639928 5.41567788 27.94477064 5.45735191 25.44311523 5.49731445 C21.85130808 5.55498271 18.25965148 5.61868733 14.66796875 5.68359375 C13.54601608 5.70030624 12.42406342 5.71701874 11.26811218 5.73423767 C10.22725967 5.75418289 9.18640717 5.77412811 8.11401367 5.79467773 C6.7383448 5.81799416 6.7383448 5.81799416 5.33488464 5.84178162 C2.84418392 5.912291 2.84418392 5.912291 0 7 C0 17.23 0 27.46 0 38 C0.66 38 1.32 38 2 38 C4.60763671 41.83475986 3.65009666 44.56430648 3 49 C2.81183212 52.04244586 2.77021673 55.07732852 2.75 58.125 C2.729375 58.91003906 2.70875 59.69507813 2.6875 60.50390625 C2.65526752 65.28237071 3.17052861 67.98850401 6 72 C6.1875 74.8125 6.1875 74.8125 6 77 C4 74 4 74 4 71 C3.34 71 2.68 71 2 71 C-0.16926659 67.74610012 -0.24080049 66.86604043 -0.1953125 63.11328125 C-0.18886719 62.17548828 -0.18242187 61.23769531 -0.17578125 60.27148438 C-0.15902344 59.29501953 -0.14226562 58.31855469 -0.125 57.3125 C-0.11597656 56.32443359 -0.10695312 55.33636719 -0.09765625 54.31835938 C-0.0740843 51.87866235 -0.04118022 49.43945303 0 47 C0.66 47 1.32 47 2 47 C1.62113294 43.40729985 1.62113294 43.40729985 -0.52246094 40.69042969 C-2.65474906 38.25091169 -2.35718493 36.46522345 -2.328125 33.265625 C-2.32296875 32.13382813 -2.3178125 31.00203125 -2.3125 29.8359375 C-2.291875 28.65257812 -2.27125 27.46921875 -2.25 26.25 C-2.24484375 25.08210938 -2.2396875 23.91421875 -2.234375 22.7109375 C-2.18303107 17.05026926 -2.01052784 11.57420197 -1 6 C-1.99 6.66 -2.98 7.32 -4 8 C-4.51184645 11.00414569 -4.51184645 11.00414569 -4.51171875 14.5390625 C-4.54716797 15.84101563 -4.58261719 17.14296875 -4.61914062 18.484375 C-4.64224231 19.86457809 -4.66502464 21.24478657 -4.6875 22.625 C-4.72066445 24.01305352 -4.7551533 25.40107607 -4.79101562 26.7890625 C-4.87374115 30.19262707 -4.94281257 33.5959259 -5 37 C-5.33 37 -5.66 37 -6 37 C-6.33 33.37 -6.66 29.74 -7 26 C-7.33 26.66 -7.66 27.32 -8 28 C-10.64 27.34 -13.28 26.68 -16 26 C-16 25.01 -16 24.02 -16 23 C-15.01 23 -14.02 23 -13 23 C-13 22.34 -13 21.68 -13 21 C-13.99 21 -14.98 21 -16 21 C-16 20.34 -16 19.68 -16 19 C-14.35 19 -12.7 19 -11 19 C-11 18.34 -11 17.68 -11 17 C-12.65 17 -14.3 17 -16 17 C-16 16.34 -16 15.68 -16 15 C-9.375 15.75 -9.375 15.75 -6 18 C-6.06960937 17.28714844 -6.13921875 16.57429688 -6.2109375 15.83984375 C-6.51308823 10.49465338 -6.64397904 6.96971552 -3 2.8125 C-2.02512086 1.84890418 -1.03310325 0.90089063 0 0 Z " fill="#370101" transform="translate(158,173)"/>
<path d="M0 0 C13.31775701 -0.23364486 13.31775701 -0.23364486 16.875 2.375 C19.50358977 6.17185189 19.15487988 10.21088142 19.125 14.625 C19.12089111 15.34268555 19.11678223 16.06037109 19.11254883 16.79980469 C18.96126147 31.19975822 18.96126147 31.19975822 15 36 C14.94465088 35.12674072 14.88930176 34.25348145 14.83227539 33.35375977 C14.62535976 30.12385202 14.4143181 26.89424847 14.20043945 23.66479492 C14.1086044 22.26516364 14.01843047 20.86542236 13.92993164 19.46557617 C13.80267777 17.45723996 13.6690167 15.44931293 13.53515625 13.44140625 C13.456604 12.23170166 13.37805176 11.02199707 13.29711914 9.77563477 C13.30389296 7.09461717 13.30389296 7.09461717 12 6 C5.35911447 5.05054934 -1.14431865 4.86159557 -7.84399414 4.88647461 C-8.88894043 4.88632858 -9.93388672 4.88618256 -11.01049805 4.8860321 C-14.43540586 4.88672408 -17.86025804 4.89448277 -21.28515625 4.90234375 C-23.67125926 4.90421047 -26.05736266 4.90563318 -28.44346619 4.90663147 C-34.70202709 4.91043662 -40.96056453 4.92024971 -47.21911621 4.93133545 C-53.6141732 4.94159273 -60.00923401 4.94613832 -66.40429688 4.95117188 C-78.93620789 4.96187386 -91.46810269 4.97873194 -104 5 C-104 4.67 -104 4.34 -104 4 C-91.13843599 3.16921919 -78.31600159 2.80341425 -65.4296875 2.68359375 C-63.52726872 2.66295228 -61.62485377 2.64195436 -59.72244263 2.62062073 C-54.78089563 2.56614082 -49.83931254 2.51641368 -44.89770508 2.46777344 C-39.82890719 2.41700767 -34.76015995 2.36161291 -29.69140625 2.30664062 C-19.79431437 2.19996915 -9.897178 2.09833288 0 2 C0 1.34 0 0.68 0 0 Z " fill="#251718" transform="translate(185,13)"/>
<path d="M0 0 C1.24330078 -0.01836914 1.24330078 -0.01836914 2.51171875 -0.03710938 C8.66727809 -0.05178877 13.26828782 0.69969188 18.5 4.1875 C18.5 5.5075 18.5 6.8275 18.5 8.1875 C5.96 8.1875 -6.58 8.1875 -19.5 8.1875 C-19.17 6.5375 -18.84 4.8875 -18.5 3.1875 C-12.9236387 -0.5300742 -6.49422662 0.00504994 0 0 Z " fill="#ECECEC" transform="translate(137.5,210.8125)"/>
<path d="M0 0 C0.33 0 0.66 0 1 0 C1 2.31 1 4.62 1 7 C1.66 7 2.32 7 3 7 C3.33 10.96 3.66 14.92 4 19 C4.66 18.01 5.32 17.02 6 16 C7.73734147 19.80043446 8 21.59714577 8 26 C20.54 26.33 33.08 26.66 46 27 C46 24.36 46 21.72 46 19 C46.46660535 16.53365745 47.20268759 14.39193722 48 12 C48.33 12 48.66 12 49 12 C49.21755666 17.4389165 49.10428384 21.87080814 47 27 C47.66 27.33 48.32 27.66 49 28 C41.75513449 28.02526739 34.51028026 28.0428318 27.26538086 28.05493164 C24.79857967 28.05997356 22.33178148 28.06680691 19.86499023 28.07543945 C16.32795471 28.08751125 12.79095855 28.09322956 9.25390625 28.09765625 C8.14350479 28.10281754 7.03310333 28.10797882 5.88905334 28.11329651 C4.35757912 28.11340981 4.35757912 28.11340981 2.79516602 28.11352539 C1.43948265 28.11685631 1.43948265 28.11685631 0.05641174 28.12025452 C-2 28 -2 28 -3 27 C-3.28030545 20.8332801 -2.53489247 15.06950449 -1.5 9 C-1.35691406 8.12988281 -1.21382812 7.25976562 -1.06640625 6.36328125 C-0.71661973 4.24124305 -0.3591135 2.12047972 0 0 Z " fill="#B2B2B1" transform="translate(64,144)"/>
<path d="M0 0 C1.10868317 3.32604951 1.54177532 6.53058454 2 10 C4.97 10.495 4.97 10.495 8 11 C8 10.34 8 9.68 8 9 C8.51876709 9.16153564 9.03753418 9.32307129 9.57202148 9.48950195 C14.59335037 10.54526854 19.83732733 10.18590185 24.9543457 10.18530273 C27.0589601 10.18749631 29.16305586 10.20569398 31.26757812 10.22460938 C32.60676905 10.22754236 33.94596245 10.22952779 35.28515625 10.23046875 C37.10865601 10.23663208 37.10865601 10.23663208 38.96899414 10.24291992 C42.17733188 10.23310789 42.17733188 10.23310789 45 8 C47.33199388 7.92094936 49.66832622 7.91201231 52 8 C51 11 51 11 48.9609375 12.1328125 C48.10757813 12.46023437 47.25421875 12.78765625 46.375 13.125 C45.53710938 13.45757812 44.69921875 13.79015625 43.8359375 14.1328125 C31.32804476 17.95754003 13.91513047 17.65404194 2.1640625 11.51953125 C0 10 0 10 -1 8 C-1.23076923 2.46153846 -1.23076923 2.46153846 0 0 Z " fill="#200708" transform="translate(111,243)"/>
<path d="M0 0 C0.33 0 0.66 0 1 0 C1.02505615 0.90242432 1.0501123 1.80484863 1.07592773 2.73461914 C1.17154627 6.10988834 1.27074827 9.48501394 1.37231445 12.86010742 C1.41539933 14.3157953 1.45709075 15.77152517 1.49731445 17.22729492 C1.55566411 19.33004361 1.61916516 21.43258606 1.68359375 23.53515625 C1.72025146 24.797229 1.75690918 26.05930176 1.79467773 27.35961914 C1.99759141 30.95729546 2.46277372 34.4388669 3 38 C3.1172906 39.41882324 3.21498193 40.83959885 3.28125 42.26171875 C3.31863281 42.98810547 3.35601562 43.71449219 3.39453125 44.46289062 C3.46539809 45.95765611 3.535702 47.45244839 3.60546875 48.94726562 C3.78686837 53.00003611 3.78686837 53.00003611 4.50708008 56.97973633 C5.39061927 60.60097795 5.18453686 64.2901493 5.1875 68 C5.19974609 68.80695313 5.21199219 69.61390625 5.22460938 70.4453125 C5.22654297 71.22648437 5.22847656 72.00765625 5.23046875 72.8125 C5.23457764 73.52019531 5.23868652 74.22789063 5.24291992 74.95703125 C4.9621464 77.31835067 4.16578114 78.94392823 3 81 C1.58043324 68.76512038 0.35059606 56.52841956 -0.625 44.25 C-0.69036957 43.42970306 -0.75573914 42.60940613 -0.8230896 41.76425171 C-1.6066002 31.78404142 -2.28315152 21.82896473 -2.3125 11.8125 C-2.31781738 10.93561523 -2.32313477 10.05873047 -2.32861328 9.15527344 C-2.2832101 5.26334418 -2.2058211 3.30873166 0 0 Z " fill="#120F10" transform="translate(203,41)"/>
<path d="M0 0 C0.99966797 -0.020625 1.99933594 -0.04125 3.02929688 -0.0625 C9.83018645 -0.09785225 15.55107125 0.9109848 21.9375 3.25 C21.9375 3.58 21.9375 3.91 21.9375 4.25 C7.0875 3.755 7.0875 3.755 -8.0625 3.25 C-8.0625 3.91 -8.0625 4.57 -8.0625 5.25 C-0.8025 5.58 6.4575 5.91 13.9375 6.25 C13.9375 6.58 13.9375 6.91 13.9375 7.25 C16.2475 7.25 18.5575 7.25 20.9375 7.25 C20.6075 7.91 20.2775 8.57 19.9375 9.25 C15.81167603 9.34969463 11.68632903 9.42185233 7.55957031 9.46972656 C6.15905527 9.4897063 4.75862218 9.5169002 3.35839844 9.55175781 C-4.68799937 9.74689157 -11.13753164 9.78335558 -18.0625 5.25 C-17.7325 3.93 -17.4025 2.61 -17.0625 1.25 C-16.0725 1.25 -15.0825 1.25 -14.0625 1.25 C-9.44585965 -0.28888012 -4.8360981 0.02428674 0 0 Z " fill="#4A484A" transform="translate(133.0625,244.75)"/>
<path d="M0 0 C0.99 0.33 1.98 0.66 3 1 C4.09911549 4.29734646 4.1139456 6.72958745 4.09765625 10.19921875 C4.09443359 11.40771484 4.09121094 12.61621094 4.08789062 13.86132812 C4.07951172 15.12396484 4.07113281 16.38660156 4.0625 17.6875 C4.05798828 18.96173828 4.05347656 20.23597656 4.04882812 21.54882812 C4.03702873 24.69926564 4.02056597 27.84960949 4 31 C4.90121582 30.84152588 5.80243164 30.68305176 6.73095703 30.51977539 C9.28526945 30.11364162 11.72857606 29.82230744 14.3046875 29.68359375 C15.05234375 29.64169922 15.8 29.59980469 16.5703125 29.55664062 C17.71113281 29.49766602 17.71113281 29.49766602 18.875 29.4375 C19.65875 29.39431641 20.4425 29.35113281 21.25 29.30664062 C23.16650649 29.20146649 25.08323333 29.10032075 27 29 C27 28.67 27 28.34 27 28 C32.53846154 27.63076923 32.53846154 27.63076923 34.875 29.5 C35.24625 29.995 35.6175 30.49 36 31 C35.67 31.99 35.34 32.98 35 34 C34.36449219 33.83757812 33.72898438 33.67515625 33.07421875 33.5078125 C28.96884697 32.82966977 24.96607474 32.85226071 20.8125 32.875 C19.54635864 32.87790039 19.54635864 32.87790039 18.25463867 32.88085938 C12.44490022 32.92113098 6.76557612 33.24385887 1 34 C0.04622816 29.99679847 -0.1157616 26.27788253 -0.09765625 22.16796875 C-0.09443359 20.87568359 -0.09121094 19.58339844 -0.08789062 18.25195312 C-0.07953665 16.89713474 -0.07107172 15.54231703 -0.0625 14.1875 C-0.05748 12.81315265 -0.05291797 11.43880355 -0.04882812 10.06445312 C-0.03705668 6.70959076 -0.02061283 3.35481779 0 0 Z " fill="#090202" transform="translate(117,179)"/>
<path d="M0 0 C3.12259437 3.12259437 3.14293342 6.71466712 4 11 C9.94 11.99 9.94 11.99 16 13 C16 13.66 16 14.32 16 15 C11.545 15.495 11.545 15.495 7 16 C10.63 16.33 14.26 16.66 18 17 C18 17.66 18 18.32 18 19 C16.35 19.33 14.7 19.66 13 20 C15.97 20.33 18.94 20.66 22 21 C22 21.99 22 22.98 22 24 C22.99 24.66 23.98 25.32 25 26 C22.08110852 26.16216064 19.17120775 26.28091202 16.25 26.375 C15.0125 26.45041016 15.0125 26.45041016 13.75 26.52734375 C11.36924565 26.58494265 9.32031407 26.54232693 7 26 C1.46986264 20.12860416 -0.17132752 10.61201578 -0.1875 2.6875 C-0.125625 1.800625 -0.06375 0.91375 0 0 Z " fill="#838383" transform="translate(147,144)"/>
<path d="M0 0 C1.74627478 2.61941217 2.38722388 4.03824877 3 7 C3.33 5.02 3.66 3.04 4 1 C4.33 1 4.66 1 5 1 C6.58968904 9.00521982 7.59685798 16.82443371 7 25 C6 26 6 26 3.05859375 26.09765625 C1.86363281 26.08605469 0.66867188 26.07445312 -0.5625 26.0625 C-2.35880859 26.04896484 -2.35880859 26.04896484 -4.19140625 26.03515625 C-5.11824219 26.02355469 -6.04507813 26.01195312 -7 26 C-6.34 25.34 -5.68 24.68 -5 24 C-4.83318891 20.91652174 -4.83318891 20.91652174 -5 18 C-4.34 18 -3.68 18 -3 18 C-3 16.02 -3 14.04 -3 12 C-2.34 12 -1.68 12 -1 12 C-0.67 13.65 -0.34 15.3 0 17 C0 11.39 0 5.78 0 0 Z " fill="#E7E7E6" transform="translate(205,146)"/>
<path d="M0 0 C0.5465625 0.30550781 1.093125 0.61101562 1.65625 0.92578125 C4.98225379 2.45019965 7.86046017 2.22690447 11.5 2.1875 C12.8096875 2.18105469 14.119375 2.17460937 15.46875 2.16796875 C18.82024151 2.12519617 18.82024151 2.12519617 21.28125 1.42578125 C23 1 23 1 26 2 C26 2.66 26 3.32 26 4 C29.63 4 33.26 4 37 4 C37 4.33 37 4.66 37 5 C36.20827393 5.0093457 35.41654785 5.01869141 34.60083008 5.02832031 C31.00409292 5.08209344 27.40864648 5.16572963 23.8125 5.25 C21.94368164 5.27126953 21.94368164 5.27126953 20.03710938 5.29296875 C18.2340332 5.34130859 18.2340332 5.34130859 16.39453125 5.390625 C14.73707886 5.4220459 14.73707886 5.4220459 13.04614258 5.45410156 C9.33581345 6.1190287 7.68828216 7.40344091 5 10 C2.81005752 13.28491373 2.64722661 14.83095639 2.375 18.6875 C2.30023438 19.68136719 2.22546875 20.67523438 2.1484375 21.69921875 C2.09945312 22.45847656 2.05046875 23.21773437 2 24 C-1.3 23.01 -4.6 22.02 -8 21 C-6.68 20.34 -5.36 19.68 -4 19 C-3.01 19.33 -2.02 19.66 -1 20 C-1 18.68 -1 17.36 -1 16 C-0.34 16 0.32 16 1 16 C0.54177532 12.53058454 0.10868317 9.32604951 -1 6 C-0.5625 3.8125 -0.5625 3.8125 0 2 C-0.66 1.67 -1.32 1.34 -2 1 C-1.34 0.67 -0.68 0.34 0 0 Z " fill="#EDEDEE" transform="translate(150,167)"/>
<path d="M0 0 C0.99 0.33 1.98 0.66 3 1 C3.06058594 1.85464844 3.12117188 2.70929688 3.18359375 3.58984375 C3.26738281 4.69457031 3.35117188 5.79929688 3.4375 6.9375 C3.51871094 8.03964844 3.59992188 9.14179688 3.68359375 10.27734375 C3.70418084 12.91109903 3.70418084 12.91109903 5 14 C5.14115161 16.67058851 5.04247107 19.32432238 5 22 C4.01 22 3.02 22 2 22 C2 22.99 2 23.98 2 25 C-24.235 24.01 -24.235 24.01 -51 23 C-51 22.67 -51 22.34 -51 22 C-25.755 21.505 -25.755 21.505 0 21 C0 14.07 0 7.14 0 0 Z " fill="#383737" transform="translate(211,150)"/>
<path d="M0 0 C0.33 0 0.66 0 1 0 C0.18249258 20.63501484 0.18249258 20.63501484 -4 29 C-4.66 29 -5.32 29 -6 29 C-6.33 28.01 -6.66 27.02 -7 26 C-7.66 26 -8.32 26 -9 26 C-9.33 26.99 -9.66 27.98 -10 29 C-10.66 29 -11.32 29 -12 29 C-11.70996094 28.00033203 -11.70996094 28.00033203 -11.4140625 26.98046875 C-9.73938787 21.0527838 -8.43372135 15.21149785 -7.52734375 9.1171875 C-7.35332031 8.41851562 -7.17929688 7.71984375 -7 7 C-6.34 6.67 -5.68 6.34 -5 6 C-5 8.97 -5 11.94 -5 15 C-4.34 15 -3.68 15 -3 15 C-2.86722656 14.08476562 -2.73445313 13.16953125 -2.59765625 12.2265625 C-2.42105469 11.03804687 -2.24445313 9.84953125 -2.0625 8.625 C-1.88847656 7.44164062 -1.71445313 6.25828125 -1.53515625 5.0390625 C-1 2 -1 2 0 0 Z " fill="#D8D8D8" transform="translate(126,141)"/>
<path d="M0 0 C0.33 0 0.66 0 1 0 C1.33 8.25 1.66 16.5 2 25 C2.66 23.02 3.32 21.04 4 19 C5.65 19.33 7.3 19.66 9 20 C9 22.31 9 24.62 9 27 C12.63 27 16.26 27 20 27 C20 26.34 20 25.68 20 25 C20.99 25 21.98 25 23 25 C22.34 23.68 21.68 22.36 21 21 C26.75 20.875 26.75 20.875 29 22 C29 23.32 29 24.64 29 26 C27.35 26.33 25.7 26.66 24 27 C24 27.33 24 27.66 24 28 C16.08 28.33 8.16 28.66 0 29 C0 19.43 0 9.86 0 0 Z " fill="#A4A4A5" transform="translate(121,181)"/>
<path d="M0 0 C0.99 0.33 1.98 0.66 3 1 C2.67 2.32 2.34 3.64 2 5 C-16.81 4.67 -35.62 4.34 -55 4 C-54.34 3.01 -53.68 2.02 -53 1 C-50.87475586 0.64355469 -50.87475586 0.64355469 -48.21484375 0.671875 C-47.22049316 0.67630615 -46.22614258 0.6807373 -45.20166016 0.68530273 C-43.58590088 0.71732788 -43.58590088 0.71732788 -41.9375 0.75 C-40.8345459 0.76168213 -39.7315918 0.77336426 -38.59521484 0.78540039 C-30.43597091 0.89566044 -22.27934332 1.13825804 -14.125 1.4375 C-12.52192993 1.49599121 -12.52192993 1.49599121 -10.88647461 1.55566406 C-9.89526611 1.59788086 -8.90405762 1.64009766 -7.8828125 1.68359375 C-7.01027832 1.72025146 -6.13774414 1.75690918 -5.23876953 1.79467773 C-3 2 -3 2 0 3 C0 2.01 0 1.02 0 0 Z " fill="#090202" transform="translate(213,172)"/>
<path d="M0 0 C0.33 0 0.66 0 1 0 C1 6.27 1 12.54 1 19 C-7 19 -7 19 -10 18 C-10.33 16.02 -10.66 14.04 -11 12 C-10.34 11.67 -9.68 11.34 -9 11 C-9.165 10.38125 -9.33 9.7625 -9.5 9.125 C-10 7 -10 7 -10 5 C-7.69 5 -5.38 5 -3 5 C-2.34 6.98 -1.68 8.96 -1 11 C-0.67 7.37 -0.34 3.74 0 0 Z " fill="#AEAEAE" transform="translate(154,222)"/>
<path d="M0 0 C0 0.66 0 1.32 0 2 C0.99 2.33 1.98 2.66 3 3 C-6.36795337 3.72559528 -15.5966687 4.10565541 -25 4 C-25 9.94 -25 15.88 -25 22 C-25.33 22 -25.66 22 -26 22 C-26.33 18.7 -26.66 15.4 -27 12 C-28.87824891 13.87824891 -28.39102397 17.03935276 -28.5625 19.5625 C-28.64628906 20.76003906 -28.73007813 21.95757812 -28.81640625 23.19140625 C-28.87699219 24.11824219 -28.93757813 25.04507813 -29 26 C-29.33 26 -29.66 26 -30 26 C-30.10822792 22.93654856 -30.18741479 19.8769399 -30.25 16.8125 C-30.28351563 15.94818359 -30.31703125 15.08386719 -30.3515625 14.19335938 C-30.41381881 10.13113529 -30.32336249 7.60905167 -28.390625 3.96875 C-25.37612301 1.48621895 -23.36648717 1.11856107 -19.5 0.6875 C-18.27023438 0.54957031 -17.04046875 0.41164063 -15.7734375 0.26953125 C-10.50344209 -0.10689699 -5.27919419 -0.17403937 0 0 Z " fill="#380609" transform="translate(99,12)"/>
<path d="M0 0 C0.33 0 0.66 0 1 0 C1.0501123 0.98991943 1.10022461 1.97983887 1.15185547 2.99975586 C2.45080231 28.70634818 2.45080231 28.70634818 4.39013672 54.37084961 C4.81839176 59.27251726 5.09488972 64.0792904 5 69 C3 68 3 68 2.39257812 66.17895508 C1.767257 62.7081895 1.66412535 59.20403762 1.5 55.6875 C1.43005108 54.21209589 1.35716511 52.73682791 1.28125 51.26171875 C1.25095703 50.61162842 1.22066406 49.96153809 1.18945312 49.29174805 C1.03637248 47.43998517 0.78532727 45.5964845 0.50439453 43.75976562 C-0.04270022 39.6817118 -0.24118499 35.69016354 -0.3515625 31.58203125 C-0.37471527 30.80236496 -0.39786804 30.02269867 -0.42172241 29.21940613 C-0.46904658 27.58325843 -0.51431538 25.94705011 -0.55761719 24.31079102 C-0.62509039 21.80914873 -0.70281567 19.30796047 -0.78125 16.80664062 C-0.82614027 15.21095481 -0.87043198 13.61525201 -0.9140625 12.01953125 C-0.93796051 11.27467972 -0.96185852 10.52982819 -0.98648071 9.7624054 C-1.06897101 6.34979426 -1.09879985 3.25871125 0 0 Z " fill="#53040A" transform="translate(204,32)"/>
<path d="M0 0 C0.99 0 1.98 0 3 0 C3.33 1.32 3.66 2.64 4 4 C3.34 4 2.68 4 2 4 C2.13883419 7.43782031 2.28727054 10.87516029 2.4375 14.3125 C2.47681641 15.28896484 2.51613281 16.26542969 2.55664062 17.27148438 C2.59853516 18.20927734 2.64042969 19.14707031 2.68359375 20.11328125 C2.72025146 20.97735596 2.75690918 21.84143066 2.79467773 22.73168945 C2.92747354 25.1647826 2.92747354 25.1647826 4 28 C4.66 28 5.32 28 6 28 C6.66 30.31 7.32 32.62 8 35 C6.02 35 4.04 35 2 35 C2.061875 34.278125 2.12375 33.55625 2.1875 32.8125 C2.24414114 29.9603163 2.24414114 29.9603163 0.52734375 27.9296875 C-1.64116872 23.77013673 -1.52736464 19.93971867 -1.625 15.3125 C-1.67592507 13.60014439 -1.73043775 11.88789055 -1.7890625 10.17578125 C-1.81540771 9.04523315 -1.81540771 9.04523315 -1.84228516 7.8918457 C-1.88946212 5.91160832 -1.88946212 5.91160832 -3 4 C-2.34 3.67 -1.68 3.34 -1 3 C-0.67 2.01 -0.34 1.02 0 0 Z " fill="#0C0808" transform="translate(156,216)"/>
<path d="M0 0 C0.33 0 0.66 0 1 0 C1 9.9 1 19.8 1 30 C0.67 30 0.34 30 0 30 C-0.33 26.37 -0.66 22.74 -1 19 C-1.33 19.66 -1.66 20.32 -2 21 C-4.64 20.34 -7.28 19.68 -10 19 C-10 18.01 -10 17.02 -10 16 C-9.01 16 -8.02 16 -7 16 C-7 15.34 -7 14.68 -7 14 C-7.99 14 -8.98 14 -10 14 C-10 13.34 -10 12.68 -10 12 C-8.35 12 -6.7 12 -5 12 C-5 11.34 -5 10.68 -5 10 C-6.65 10 -8.3 10 -10 10 C-10 9.34 -10 8.68 -10 8 C-3.375 8.75 -3.375 8.75 0 11 C0 7.37 0 3.74 0 0 Z " fill="#797878" transform="translate(152,180)"/>
<path d="M0 0 C0.66 0 1.32 0 2 0 C2.4480689 17.56659886 1.3038481 34.58429722 -1 52 C-1.33 52 -1.66 52 -2 52 C-2.05887829 41.82807451 -1.92640084 31.6742605 -1.62768555 21.50683594 C-1.56135604 19.21039423 -1.5023036 16.91382934 -1.44335938 14.6171875 C-1.40148042 13.14582078 -1.35917924 11.674466 -1.31640625 10.203125 C-1.27974854 8.88989258 -1.24309082 7.57666016 -1.20532227 6.22363281 C-1 3 -1 3 0 0 Z " fill="#292829" transform="translate(78,23)"/>
<path d="M0 0 C2.64 0.33 5.28 0.66 8 1 C7.979375 1.9075 7.95875 2.815 7.9375 3.75 C7.98976388 6.46772151 8.31219913 8.42074672 9 11 C9 12.32 9 13.64 9 15 C8.34 15 7.68 15 7 15 C7.33 16.65 7.66 18.3 8 20 C5.36 19.01 2.72 18.02 0 17 C0 16.34 0 15.68 0 15 C1.65 14.67 3.3 14.34 5 14 C3.35 13.67 1.7 13.34 0 13 C0 10.36 0 7.72 0 5 C1.65 4.67 3.3 4.34 5 4 C4.175 3.525625 3.35 3.05125 2.5 2.5625 C1.675 2.046875 0.85 1.53125 0 1 C0 0.67 0 0.34 0 0 Z " fill="#868485" transform="translate(142,168)"/>
<path d="M0 0 C3.04190863 -0.05421223 6.08283999 -0.09377548 9.125 -0.125 C9.9809375 -0.14175781 10.836875 -0.15851563 11.71875 -0.17578125 C18.00717191 -0.22415373 22.64877903 0.43251935 28 4 C28 5.32 28 6.64 28 8 C13.15 7.505 13.15 7.505 -2 7 C-2 6.67 -2 6.34 -2 6 C4.27 5.67 10.54 5.34 17 5 C15.68 4.67 14.36 4.34 13 4 C13 3.34 13 2.68 13 2 C8.71 1.67 4.42 1.34 0 1 C0 0.67 0 0.34 0 0 Z " fill="#A4A4A4" transform="translate(128,211)"/>
<path d="M0 0 C0.33 0 0.66 0 1 0 C1.02907084 3.58331625 1.04682263 7.16660208 1.0625 10.75 C1.07087891 11.76578125 1.07925781 12.7815625 1.08789062 13.828125 C1.09111328 14.8078125 1.09433594 15.7875 1.09765625 16.796875 C1.10289307 17.69760742 1.10812988 18.59833984 1.11352539 19.52636719 C1 22 1 22 0.52075195 23.83276367 C-0.27436363 27.1418312 -0.29473958 30.4916762 -0.4296875 33.87890625 C-0.50341576 35.45640321 -0.57765125 37.03387653 -0.65234375 38.61132812 C-0.76507668 41.07705597 -0.87419988 43.5427512 -0.97412109 46.0090332 C-1.36027435 55.35488376 -1.87136616 64.08104026 -5 73 C-5.33 73 -5.66 73 -6 73 C-6.13803821 66.48591128 -5.6134316 60.37639082 -4.6875 53.9375 C-2.26503445 36.04671995 -1.24602697 18.00261902 0 0 Z " fill="#4F0508" transform="translate(66,71)"/>
<path d="M0 0 C0.33 0 0.66 0 1 0 C1.30013636 9.95591214 0.37278132 19.78328688 -0.5 29.6875 C-0.64495832 31.37170809 -0.78949283 33.05595271 -0.93359375 34.74023438 C-1.28418092 38.82726025 -1.64048903 42.91374983 -2 47 C-2.33 47 -2.66 47 -3 47 C-4.35064935 36.7012987 -4.35064935 36.7012987 -3 34 C-2.95017612 31.79483209 -2.96386381 29.58810533 -3.0078125 27.3828125 C-3.02533329 26.0403722 -3.04224114 24.69792379 -3.05859375 23.35546875 C-3.08952538 21.23984353 -3.12500826 19.12462348 -3.17138672 17.00927734 C-3.2138234 14.96707155 -3.23719486 12.92533967 -3.2578125 10.8828125 C-3.2798877 9.65965332 -3.30196289 8.43649414 -3.32470703 7.17626953 C-2.97714835 3.77646623 -2.37157256 2.40751683 0 0 Z " fill="#121111" transform="translate(71,59)"/>
<path d="M0 0 C0.33 0 0.66 0 1 0 C1.33 10.56 1.66 21.12 2 32 C2.66 32.33 3.32 32.66 4 33 C3.01 34.32 2.02 35.64 1 37 C1 35.35 1 33.7 1 32 C0.01 32 -0.98 32 -2 32 C-2 34.64 -2 37.28 -2 40 C-1.34 40 -0.68 40 0 40 C0 46.93 0 53.86 0 61 C-1.98 61.495 -1.98 61.495 -4 62 C-3.67 61.01 -3.34 60.02 -3 59 C-2.71871134 56.36895653 -2.49072651 53.7627524 -2.3125 51.125 C-2.22258789 50.06345703 -2.22258789 50.06345703 -2.13085938 48.98046875 C-1.84054339 44.70924458 -2.26934961 41.87529949 -4 38 C-3.625 34.1875 -3.625 34.1875 -3 31 C-2.01 30.67 -1.02 30.34 0 30 C0 20.1 0 10.2 0 0 Z " fill="#78191C" transform="translate(116,181)"/>
<path d="M0 0 C10.23 0 20.46 0 31 0 C31 0.66 31 1.32 31 2 C31.66 2.33 32.32 2.66 33 3 C28.49646738 4.75747614 24.82360189 5.19294408 20 5 C20 4.67 20 4.34 20 4 C18.72382813 3.93941406 17.44765625 3.87882813 16.1328125 3.81640625 C14.46352984 3.73200432 12.79425963 3.64735614 11.125 3.5625 C10.28324219 3.52318359 9.44148437 3.48386719 8.57421875 3.44335938 C7.76855469 3.40146484 6.96289062 3.35957031 6.1328125 3.31640625 C5.38918457 3.27974854 4.64555664 3.24309082 3.87939453 3.20532227 C2 3 2 3 0 2 C0 1.34 0 0.68 0 0 Z " fill="#C6C6C6" transform="translate(125,248)"/>
<path d="M0 0 C0.33 0 0.66 0 1 0 C1 4.62 1 9.24 1 14 C1.66 14 2.32 14 3 14 C5.60763671 17.83475986 4.65009666 20.56430648 4 25 C3.81183212 28.04244586 3.77021673 31.07732852 3.75 34.125 C3.7190625 35.30255859 3.7190625 35.30255859 3.6875 36.50390625 C3.65526752 41.28237071 4.17052861 43.98850401 7 48 C7.1875 50.8125 7.1875 50.8125 7 53 C5 50 5 50 5 47 C4.34 47 3.68 47 3 47 C0.83073341 43.74610012 0.75919951 42.86604043 0.8046875 39.11328125 C0.81113281 38.17548828 0.81757813 37.23769531 0.82421875 36.27148438 C0.84097656 35.29501953 0.85773438 34.31855469 0.875 33.3125 C0.88402344 32.32443359 0.89304688 31.33636719 0.90234375 30.31835938 C0.9259157 27.87866235 0.95881978 25.43945303 1 23 C1.66 23 2.32 23 3 23 C2.65555119 20.52733235 2.65555119 20.52733235 2 18 C1.34 17.67 0.68 17.34 0 17 C0 11.39 0 5.78 0 0 Z " fill="#620509" transform="translate(157,197)"/>
<path d="M0 0 C7.26 0 14.52 0 22 0 C22 0.33 22 0.66 22 1 C19.03 1 16.06 1 13 1 C13 6.28 13 11.56 13 17 C12.67 17 12.34 17 12 17 C11.34 13.04 10.68 9.08 10 5 C9.67 7.64 9.34 10.28 9 13 C8.34 13 7.68 13 7 13 C6.67 9.04 6.34 5.08 6 1 C4.02 1 2.04 1 0 1 C0 0.67 0 0.34 0 0 Z " fill="#979797" transform="translate(120,17)"/>
<path d="M0 0 C1.12986328 -0.00257813 2.25972656 -0.00515625 3.42382812 -0.0078125 C4.59494141 -0.00007812 5.76605469 0.00765625 6.97265625 0.015625 C8.13990234 0.00789062 9.30714844 0.00015625 10.50976562 -0.0078125 C11.64091797 -0.00523437 12.77207031 -0.00265625 13.9375 0 C15.47651978 0.00338379 15.47651978 0.00338379 17.04663086 0.00683594 C20.29705981 0.28830434 22.98967977 1.12204532 26.03515625 2.265625 C26.03515625 2.595625 26.03515625 2.925625 26.03515625 3.265625 C11.18515625 2.770625 11.18515625 2.770625 -3.96484375 2.265625 C-3.63484375 3.255625 -3.30484375 4.245625 -2.96484375 5.265625 C-5.30796505 5.01001177 -7.64327778 4.67291728 -9.96484375 4.265625 C-10.29484375 3.605625 -10.62484375 2.945625 -10.96484375 2.265625 C-7.16601755 0.50943633 -4.1729604 0.00918504 0 0 Z " fill="#262726" transform="translate(128.96484375,245.734375)"/>
<path d="M0 0 C0.33 0 0.66 0 1 0 C1.21755666 5.4389165 1.10428384 9.87080814 -1 15 C-0.34 15.33 0.32 15.66 1 16 C-15.83 16 -32.66 16 -50 16 C-50 15.67 -50 15.34 -50 15 C-34.16 15 -18.32 15 -2 15 C-2 12.36 -2 9.72 -2 7 C-1.53339465 4.53365745 -0.79731241 2.39193722 0 0 Z " fill="#C3C3C2" transform="translate(112,156)"/>
<path d="M0 0 C5.53846154 -0.36923077 5.53846154 -0.36923077 7.875 1.5 C8.24625 1.995 8.6175 2.49 9 3 C8.67 3.99 8.34 4.98 8 6 C7.28142822 5.83556396 6.56285645 5.67112793 5.82250977 5.50170898 C3.06907424 5.01227814 0.63035905 4.91503194 -2.16015625 4.97265625 C-3.11857422 4.98490234 -4.07699219 4.99714844 -5.06445312 5.00976562 C-7.06712845 5.04499184 -9.06973964 5.0840697 -11.07226562 5.12695312 C-12.02939453 5.13791016 -12.98652344 5.14886719 -13.97265625 5.16015625 C-15.27601929 5.18541382 -15.27601929 5.18541382 -16.60571289 5.21118164 C-19.18221856 4.9839279 -20.78577024 4.30031885 -23 3 C-18.0399662 2.05711817 -13.15485426 1.69751789 -8.125 1.4375 C-7.34125 1.39431641 -6.5575 1.35113281 -5.75 1.30664062 C-3.83349351 1.20146649 -1.91676667 1.10032075 0 1 C0 0.67 0 0.34 0 0 Z " fill="#494949" transform="translate(144,207)"/>
<path d="M0 0 C4.57488503 6.86232754 4.3127794 15.98937212 4 24 C2.34385343 24.38218767 0.67542976 24.71395102 -1 25 C-2 24 -2 24 -2.09765625 21.27734375 C-2.08605469 20.17519531 -2.07445312 19.07304687 -2.0625 17.9375 C-2.05347656 16.83277344 -2.04445312 15.72804687 -2.03515625 14.58984375 C-2.02355469 13.73519531 -2.01195312 12.88054687 -2 12 C-1.67 12 -1.34 12 -1 12 C-0.67 13.65 -0.34 15.3 0 17 C0 11.39 0 5.78 0 0 Z " fill="#848384" transform="translate(205,146)"/>
<path d="M0 0 C2.26444197 2.26444197 2.41656163 3.18694854 3 6.25 C3.57118745 9.06967136 4.21110663 11.63331989 5.125 14.375 C6 17 6 17 6 20 C6.99 20.33 7.98 20.66 9 21 C9 21.66 9 22.32 9 23 C10.98 23.33 12.96 23.66 15 24 C15 24.33 15 24.66 15 25 C13.56510191 25.13536774 12.12652893 25.23217143 10.6875 25.3125 C9.88699219 25.37050781 9.08648437 25.42851562 8.26171875 25.48828125 C6 25 6 25 4.3125 22.87890625 C1.08834169 15.80686854 -0.54174421 7.76500034 0 0 Z " fill="#2F2E2F" transform="translate(147,144)"/>
<path d="M0 0 C1.65 0 3.3 0 5 0 C6.50156874 3.00313748 6.09281204 5.79067522 6.0625 9.125 C6.05347656 10.40632813 6.04445312 11.68765625 6.03515625 13.0078125 C6.02355469 13.99523438 6.01195312 14.98265625 6 16 C5.34 15.67 4.68 15.34 4 15 C3.375 12.9375 3.375 12.9375 3 11 C2.34 11 1.68 11 1 11 C-0.28317892 7.15046324 -0.06643637 4.05261865 0 0 Z " fill="#989899" transform="translate(191,21)"/>
<path d="M0 0 C3 2 3 2 3.67700195 3.86328125 C4.23772614 7.57262223 4.18450899 11.25525587 4.1875 15 C4.19974609 15.80695313 4.21199219 16.61390625 4.22460938 17.4453125 C4.22654297 18.22648437 4.22847656 19.00765625 4.23046875 19.8125 C4.23457764 20.52019531 4.23868652 21.22789063 4.24291992 21.95703125 C3.9621464 24.31835067 3.16578114 25.94392823 2 28 C-0.29612756 9.17995444 -0.29612756 9.17995444 0 0 Z " fill="#141213" transform="translate(204,94)"/>
<path d="M0 0 C0.65830811 -0.00191345 1.31661621 -0.0038269 1.99487305 -0.00579834 C3.3868854 -0.0071595 4.77891047 -0.00346783 6.17089844 0.00488281 C8.30432589 0.015584 10.43691131 0.00498594 12.5703125 -0.0078125 C13.92187686 -0.00649089 15.2734407 -0.00392847 16.625 0 C18.47544922 0.00338379 18.47544922 0.00338379 20.36328125 0.00683594 C23.3125 0.265625 23.3125 0.265625 25.3125 2.265625 C24.6525 2.265625 23.9925 2.265625 23.3125 2.265625 C23.3125 3.585625 23.3125 4.905625 23.3125 6.265625 C21.0025 5.935625 18.6925 5.605625 16.3125 5.265625 C16.3125 3.945625 16.3125 2.625625 16.3125 1.265625 C3.9375 1.760625 3.9375 1.760625 -8.6875 2.265625 C-5.85490425 -0.56697075 -3.9605534 0.00724239 0 0 Z " fill="#C3C3C3" transform="translate(128.6875,219.734375)"/>
<path d="M0 0 C0.33 0 0.66 0 1 0 C1.67640509 4.33187088 2.33936494 8.66569839 3 13 C3.19078125 14.22074219 3.3815625 15.44148437 3.578125 16.69921875 C6.2219163 34.16712555 6.2219163 34.16712555 3 39 C2.34 38.67 1.68 38.34 1 38 C1.33 37.34 1.66 36.68 2 36 C2.09472912 34.48154798 2.1298841 32.95889616 2.125 31.4375 C2.12757813 30.63183594 2.13015625 29.82617188 2.1328125 28.99609375 C2.22011391 27.00057979 2.22011391 27.00057979 1 26 C0.84193469 24.07521187 0.748865 22.1450079 0.68359375 20.21484375 C0.62075195 18.46010742 0.62075195 18.46010742 0.55664062 16.66992188 C0.51732422 15.43822266 0.47800781 14.20652344 0.4375 12.9375 C0.39431641 11.70193359 0.35113281 10.46636719 0.30664062 9.19335938 C0.20015802 6.12902665 0.09814576 3.06460927 0 0 Z " fill="#5E060E" transform="translate(213,137)"/>
<path d="M0 0 C3.31248078 -0.02945031 6.62492711 -0.04694801 9.9375 -0.0625 C10.86369141 -0.07087891 11.78988281 -0.07925781 12.74414062 -0.08789062 C18.58300303 -0.10837786 24.20913053 0.24570213 30 1 C30 1.33 30 1.66 30 2 C26.04 2 22.08 2 18 2 C18.33 2.66 18.66 3.32 19 4 C19.039992 5.99960012 19.04346799 8.00047242 19 10 C17 8 17 8 16.875 4.875 C16.91625 3.92625 16.9575 2.9775 17 2 C16.01 2.495 16.01 2.495 15 3 C15 4.65 15 6.3 15 8 C14.34 8 13.68 8 13 8 C13 5.69 13 3.38 13 1 C8.71 1 4.42 1 0 1 C0 0.67 0 0.34 0 0 Z " fill="#868687" transform="translate(167,17)"/>
<path d="M0 0 C2.95183101 2.95183101 3.08663988 5.95511947 4 10 C0.30458414 10.95024979 -2.30458414 10.95024979 -6 10 C-6.33 8.35 -6.66 6.7 -7 5 C-5.02 4.67 -3.04 4.34 -1 4 C-0.67 2.68 -0.34 1.36 0 0 Z " fill="#ABACAB" transform="translate(148,158)"/>
<path d="M0 0 C0.33 0 0.66 0 1 0 C0.18249258 20.63501484 0.18249258 20.63501484 -4 29 C-4.66 29 -5.32 29 -6 29 C-5.19242459 24.54075989 -4.37811136 20.08277672 -3.5625 15.625 C-3.33240234 14.35398438 -3.10230469 13.08296875 -2.86523438 11.7734375 C-2.64287109 10.56171875 -2.42050781 9.35 -2.19140625 8.1015625 C-1.98717041 6.98088379 -1.78293457 5.86020508 -1.57250977 4.70556641 C-1 2 -1 2 0 0 Z " fill="#4D4D4D" transform="translate(126,141)"/>
<path d="M0 0 C3.83419924 5.75129886 3.1326181 12.74391832 3.0625 19.4375 C3.05798828 20.26443359 3.05347656 21.09136719 3.04882812 21.94335938 C3.03715811 23.96227146 3.01922718 25.98114574 3 28 C0.19335931 23.79003896 -0.1297726 20.11475312 -0.09765625 15.13671875 C-0.09443359 14.25048828 -0.09121094 13.36425781 -0.08789062 12.45117188 C-0.07951172 11.53916016 -0.07113281 10.62714844 -0.0625 9.6875 C-0.05798828 8.75615234 -0.05347656 7.82480469 -0.04882812 6.86523438 C-0.03709234 4.57675627 -0.02067363 2.28841192 0 0 Z " fill="#090808" transform="translate(203,69)"/>
<path d="M0 0 C1.14982602 4.09003859 1.11094256 8.03177051 1.0625 12.25 C1.05798828 12.99507812 1.05347656 13.74015625 1.04882812 14.5078125 C1.03709246 16.3385764 1.0191585 18.16929873 1 20 C0.67 20 0.34 20 0 20 C-0.33 16.7 -0.66 13.4 -1 10 C-2.87824891 11.87824891 -2.39102397 15.03935276 -2.5625 17.5625 C-2.64628906 18.76003906 -2.73007813 19.95757812 -2.81640625 21.19140625 C-2.87699219 22.11824219 -2.93757813 23.04507813 -3 24 C-3.33 24 -3.66 24 -4 24 C-4.10822792 20.93654856 -4.18741479 17.8769399 -4.25 14.8125 C-4.28351563 13.94818359 -4.31703125 13.08386719 -4.3515625 12.19335938 C-4.41837569 7.83379843 -4.41222114 5.63670591 -1.984375 1.88671875 C-1.32953125 1.26410156 -0.6746875 0.64148437 0 0 Z " fill="#3F1015" transform="translate(73,14)"/>
<path d="M0 0 C1.02802734 0.00322266 2.05605469 0.00644531 3.11523438 0.00976562 C4.72301758 0.02233398 4.72301758 0.02233398 6.36328125 0.03515625 C7.44673828 0.03966797 8.53019531 0.04417969 9.64648438 0.04882812 C12.3229721 0.06061882 14.99934902 0.07707562 17.67578125 0.09765625 C17.67578125 0.42765625 17.67578125 0.75765625 17.67578125 1.09765625 C17.0302832 1.11747559 16.38478516 1.13729492 15.71972656 1.15771484 C12.78800904 1.25311953 9.85698893 1.36273596 6.92578125 1.47265625 C5.40210938 1.5190625 5.40210938 1.5190625 3.84765625 1.56640625 C2.86796875 1.60507813 1.88828125 1.64375 0.87890625 1.68359375 C-0.47219238 1.7307251 -0.47219238 1.7307251 -1.85058594 1.77880859 C-4.69166074 2.00704416 -4.69166074 2.00704416 -8.32421875 4.09765625 C-5.02421875 5.08765625 -1.72421875 6.07765625 1.67578125 7.09765625 C1.67578125 7.42765625 1.67578125 7.75765625 1.67578125 8.09765625 C-3.97816506 8.44381623 -7.35428681 7.53190863 -12.32421875 5.09765625 C-11.99421875 3.77765625 -11.66421875 2.45765625 -11.32421875 1.09765625 C-10.33421875 1.09765625 -9.34421875 1.09765625 -8.32421875 1.09765625 C-5.26502487 0.07792496 -3.2000385 -0.01767977 0 0 Z " fill="#949395" transform="translate(127.32421875,244.90234375)"/>
<path d="M0 0 C0.99 0 1.98 0 3 0 C3.38363893 14.17332706 3.38363893 14.17332706 1 20 C0.34 20.33 -0.32 20.66 -1 21 C-0.67 14.07 -0.34 7.14 0 0 Z " fill="#0A0101" transform="translate(65,97)"/>
<path d="M0 0 C-2.996974 1.99798267 -3.65430315 2.25391765 -7.01953125 2.34375 C-8.18258789 2.38822266 -8.18258789 2.38822266 -9.36914062 2.43359375 C-10.57860352 2.46646484 -10.57860352 2.46646484 -11.8125 2.5 C-21.16828381 2.51669825 -21.16828381 2.51669825 -29 7 C-28.67 5.02 -28.34 3.04 -28 1 C-18.62895894 0.11504503 -9.40228594 -0.1170409 0 0 Z " fill="#060305" transform="translate(102,15)"/>
<path d="M0 0 C3.3 0.33 6.6 0.66 10 1 C10 1.66 10 2.32 10 3 C8.35 3.33 6.7 3.66 5 4 C7.31 4.33 9.62 4.66 12 5 C12 5.66 12 6.32 12 7 C8.7 7.33 5.4 7.66 2 8 C0.74335022 5.09399739 0 3.20395416 0 0 Z " fill="#C1C1C1" transform="translate(149,148)"/>
<path d="M0 0 C2.31 0.33 4.62 0.66 7 1 C7 1.66 7 2.32 7 3 C10.63 3 14.26 3 18 3 C18 3.33 18 3.66 18 4 C13.91672643 4.0580772 9.83355917 4.09362249 5.75 4.125 C4.01169922 4.15013672 4.01169922 4.15013672 2.23828125 4.17578125 C1.12324219 4.18222656 0.00820312 4.18867188 -1.140625 4.1953125 C-2.16704102 4.20578613 -3.19345703 4.21625977 -4.25097656 4.22705078 C-7 4 -7 4 -11 2 C-5.555 1.505 -5.555 1.505 0 1 C0 0.67 0 0.34 0 0 Z " fill="#C6C7C4" transform="translate(169,168)"/>
<path d="M0 0 C0 1.32 0 2.64 0 4 C-14.85 3.505 -14.85 3.505 -30 3 C-30 2.67 -30 2.34 -30 2 C-29.40050537 1.97494385 -28.80101074 1.9498877 -28.18334961 1.92407227 C-25.43456676 1.80714227 -22.68604625 1.68486053 -19.9375 1.5625 C-18.99455078 1.52318359 -18.05160156 1.48386719 -17.08007812 1.44335938 C-11.40626458 1.18635737 -5.63531323 0 0 0 Z " fill="#B1B1B1" transform="translate(156,215)"/>
<path d="M0 0 C0.99 0 1.98 0 3 0 C3.33 1.65 3.66 3.3 4 5 C6.64 5.33 9.28 5.66 12 6 C10.67661368 6.68620031 9.34050052 7.34786461 8 8 C6.7315625 8.61875 6.7315625 8.61875 5.4375 9.25 C4.633125 9.4975 3.82875 9.745 3 10 C0 8 0 8 -0.75 5.5625 C-1 3 -1 3 0 0 Z " fill="#120D0C" transform="translate(114,213)"/>
<path d="M0 0 C0.33 0 0.66 0 1 0 C1.33 6.93 1.66 13.86 2 21 C1.01 21.33 0.02 21.66 -1 22 C-2.36534076 17.23562911 -1.71274115 13.00574651 -1.0625 8.1875 C-0.96259766 7.39923828 -0.86269531 6.61097656 -0.75976562 5.79882812 C-0.51363759 3.86496497 -0.25778782 1.93234344 0 0 Z " fill="#ADAEAC" transform="translate(198,20)"/>
<path d="M0 0 C2.33294775 -0.04241723 4.66702567 -0.04092937 7 0 C8 1 8 1 8.0625 3.5625 C8.041875 4.366875 8.02125 5.17125 8 6 C5.69 6 3.38 6 1 6 C0.4465236 3.92446352 0 2.15634036 0 0 Z " fill="#989898" transform="translate(144,227)"/>
<path d="M0 0 C2.875 0.25 2.875 0.25 6 1 C7.375 3.0625 7.375 3.0625 8 5 C7.34 5 6.68 5 6 5 C6.33 6.65 6.66 8.3 7 10 C4.36 9.01 1.72 8.02 -1 7 C-1 6.34 -1 5.68 -1 5 C0.65 4.67 2.3 4.34 4 4 C2.68 3.34 1.36 2.68 0 2 C0 1.34 0 0.68 0 0 Z " fill="#5F5F5F" transform="translate(143,178)"/>
<path d="M0 0 C0.99 0.495 0.99 0.495 2 1 C2.33 7.93 2.66 14.86 3 22 C1 21 1 21 0.38110352 19.19433594 C0.00673442 17.03877576 -0.11421297 15.07611194 -0.09765625 12.890625 C-0.09443359 12.13652344 -0.09121094 11.38242188 -0.08789062 10.60546875 C-0.07951172 9.82816406 -0.07113281 9.05085938 -0.0625 8.25 C-0.05798828 7.45722656 -0.05347656 6.66445312 -0.04882812 5.84765625 C-0.03708565 3.89840492 -0.01915146 1.94919262 0 0 Z " fill="#410307" transform="translate(206,79)"/>
<path d="M0 0 C1.10868317 3.32604951 1.54177532 6.53058454 2 10 C4.97 10.495 4.97 10.495 8 11 C8 10.34 8 9.68 8 9 C8.99 9.33 9.98 9.66 11 10 C10.67 10.33 10.34 10.66 10 11 C12.475 11.99 12.475 11.99 15 13 C15 13.33 15 13.66 15 14 C9.09640219 14.49196648 4.95908147 13.31411786 0 10 C-1.36952673 7.26094655 -1.12621361 5.02912668 -1 2 C-0.67 1.34 -0.34 0.68 0 0 Z " fill="#53080E" transform="translate(111,243)"/>
<path d="M0 0 C0.99 0.33 1.98 0.66 3 1 C3.10808032 8.09727428 2.93854006 14.96094956 2 22 C1.34 21.67 0.68 21.34 0 21 C0 14.07 0 7.14 0 0 Z " fill="#1A1A1B" transform="translate(211,150)"/>
<path d="M0 0 C0.33 1.32 0.66 2.64 1 4 C2.32 3.34 3.64 2.68 5 2 C4.67 5.96 4.34 9.92 4 14 C3.34 12.68 2.68 11.36 2 10 C1.01 10.99 0.02 11.98 -1 13 C-0.67 8.71 -0.34 4.42 0 0 Z " fill="#351213" transform="translate(59,144)"/>
<path d="M0 0 C0.33 0 0.66 0 1 0 C1 6.93 1 13.86 1 21 C-0.32 21.33 -1.64 21.66 -3 22 C-2.505 20.515 -2.505 20.515 -2 19 C-1.79755234 16.71121674 -1.63577952 14.41870395 -1.5 12.125 C-1.25407135 7.98812874 -0.92250813 4.04366063 0 0 Z " fill="#610203" transform="translate(115,221)"/>
<path d="M0 0 C0.33 0 0.66 0 1 0 C1.20086443 3.71599191 1.1519437 4.77208445 -1 8 C-3.64 7.34 -6.28 6.68 -9 6 C-9 5.01 -9 4.02 -9 3 C-6.6875 2.375 -6.6875 2.375 -4 2 C-3.01 2.66 -2.02 3.32 -1 4 C-0.67 2.68 -0.34 1.36 0 0 Z " fill="#D3D1D3" transform="translate(151,193)"/>
<path d="M0 0 C0.33 0 0.66 0 1 0 C1.30062652 7.21503643 1.12969572 13.80545641 -3 20 C-3.66 20 -4.32 20 -5 20 C-4.80664062 19.31035156 -4.61328125 18.62070313 -4.4140625 17.91015625 C-2.76761853 11.96828666 -1.28514381 6.03029017 0 0 Z " fill="#313131" transform="translate(119,150)"/>
<path d="M0 0 C0.33 0 0.66 0 1 0 C1.08078641 2.12438339 1.13909141 4.2496323 1.1875 6.375 C1.22230469 7.55835938 1.25710937 8.74171875 1.29296875 9.9609375 C1.19628906 10.96382812 1.09960938 11.96671875 1 13 C0.01 13.66 -0.98 14.32 -2 15 C-2.05386629 12.87527424 -2.09273071 10.75016348 -2.125 8.625 C-2.14820312 7.44164062 -2.17140625 6.25828125 -2.1953125 5.0390625 C-2 2 -2 2 0 0 Z " fill="#090000" transform="translate(72,23)"/>
<path d="M0 0 C0.33 0 0.66 0 1 0 C1 2.64 1 5.28 1 8 C3.475 8.99 3.475 8.99 6 10 C6 10.66 6 11.32 6 12 C3.125 11.6875 3.125 11.6875 0 11 C-2 8 -2 8 -1.6875 4.375 C-1 1 -1 1 0 0 Z " fill="#140303" transform="translate(113,242)"/>
<path d="M0 0 C2.0625 0.4375 2.0625 0.4375 4 1 C4 3.31 4 5.62 4 8 C2.35 7.67 0.7 7.34 -1 7 C-1.04254356 5.00045254 -1.04080783 2.99958364 -1 1 C-0.67 0.67 -0.34 0.34 0 0 Z " fill="#212121" transform="translate(126,183)"/>
<path d="M0 0 C0.33 0 0.66 0 1 0 C1 4.62 1 9.24 1 14 C1.66 14 2.32 14 3 14 C4.98362069 16.91708924 4.9876191 18.12380904 4.625 21.75 C4.41875 22.8225 4.2125 23.895 4 25 C3.67 25 3.34 25 3 25 C2.87625 23.865625 2.7525 22.73125 2.625 21.5625 C2.41875 20.386875 2.2125 19.21125 2 18 C1.34 17.67 0.68 17.34 0 17 C0 11.39 0 5.78 0 0 Z " fill="#81040D" transform="translate(157,197)"/>
<path d="M0 0 C0.66 0.33 1.32 0.66 2 1 C2 3 2 5 2 7 C1.34 7 0.68 7 0 7 C0 8.98 0 10.96 0 13 C-0.33 13 -0.66 13 -1 13 C-1 10.69 -1 8.38 -1 6 C-2.98 6.99 -2.98 6.99 -5 8 C-3.8141763 4.62496331 -2.72426311 2.35277269 0 0 Z " fill="#441C21" transform="translate(158,173)"/>
<path d="M0 0 C0.33 0 0.66 0 1 0 C0.67 2.97 0.34 5.94 0 9 C-2.33333333 9 -4.66666667 9 -7 9 C-6.67 7.02 -6.34 5.04 -6 3 C-5.34 3 -4.68 3 -4 3 C-4 4.32 -4 5.64 -4 7 C-3.34 7 -2.68 7 -2 7 C-1.34 4.69 -0.68 2.38 0 0 Z " fill="#BBBBBC" transform="translate(106,159)"/>
<path d="M0 0 C1.98 0 3.96 0 6 0 C6 0.33 6 0.66 6 1 C8.31 1 10.62 1 13 1 C12.67 1.66 12.34 2.32 12 3 C4.74 3 -2.52 3 -10 3 C-10 2.67 -10 2.34 -10 2 C-6.7 2 -3.4 2 0 2 C0 1.34 0 0.68 0 0 Z " fill="#69696A" transform="translate(141,251)"/>
<path d="M0 0 C0.33 0 0.66 0 1 0 C1 3.96 1 7.92 1 12 C0.34 11.67 -0.32 11.34 -1 11 C-1 9.02 -1 7.04 -1 5 C-3.64 4.67 -6.28 4.34 -9 4 C-6.64561267 2.57055055 -5.51967567 1.91338739 -2.75 2.375 C-1.88375 2.684375 -1.88375 2.684375 -1 3 C-0.67 2.01 -0.34 1.02 0 0 Z " fill="#DCDDDE" transform="translate(151,198)"/>
<path d="M0 0 C2.475 0.495 2.475 0.495 5 1 C5 2.65 5 4.3 5 6 C3.35 6.33 1.7 6.66 0 7 C0 4.69 0 2.38 0 0 Z " fill="#1A191A" transform="translate(125,200)"/>
<path d="M0 0 C2.475 0.495 2.475 0.495 5 1 C5 2.65 5 4.3 5 6 C3.0625 6.5625 3.0625 6.5625 1 7 C0 6 0 6 -0.0625 2.9375 C-0.041875 1.968125 -0.02125 0.99875 0 0 Z " fill="#161515" transform="translate(125,227)"/>
<path d="M0 0 C0.33 0 0.66 0 1 0 C1 2.97 1 5.94 1 9 C-0.98 9.99 -0.98 9.99 -3 11 C-2.88590407 9.54077307 -2.75834456 8.08259402 -2.625 6.625 C-2.55539063 5.81289062 -2.48578125 5.00078125 -2.4140625 4.1640625 C-2 2 -2 2 0 0 Z " fill="#0B0000" transform="translate(63,137)"/>
<path d="M0 0 C0.66 0 1.32 0 2 0 C2 0.99 2 1.98 2 3 C2.66 3 3.32 3 4 3 C4 5.64 4 8.28 4 11 C3.01 11.33 2.02 11.66 1 12 C0.67 8.04 0.34 4.08 0 0 Z " fill="#D2D2D2" transform="translate(93,20)"/>
<path d="M0 0 C3.63 0.33 7.26 0.66 11 1 C11 1.66 11 2.32 11 3 C7.37 3.33 3.74 3.66 0 4 C0 2.68 0 1.36 0 0 Z " fill="#A9A9A9" transform="translate(152,156)"/>
<path d="M0 0 C0.33 0 0.66 0 1 0 C1.12109311 7.07721931 0.85373239 13.97195301 0 21 C-0.33 21 -0.66 21 -1 21 C-1.75300005 15.25837463 -2.18811965 10.53032583 -1 4.8125 C-0.814375 3.91144531 -0.62875 3.01039062 -0.4375 2.08203125 C-0.293125 1.39496094 -0.14875 0.70789063 0 0 Z " fill="#222322" transform="translate(69,85)"/>
<path d="M0 0 C0.66 0 1.32 0 2 0 C3.26237731 2.52475462 3.09856404 4.31200466 3.0625 7.125 C3.05347656 8.03507812 3.04445312 8.94515625 3.03515625 9.8828125 C3.02355469 10.58148438 3.01195312 11.28015625 3 12 C2.01 12.495 2.01 12.495 1 13 C0.67 8.71 0.34 4.42 0 0 Z " fill="#706F6F" transform="translate(187,20)"/>
<path d="M0 0 C0.33 0.66 0.66 1.32 1 2 C1.66 2.33 2.32 2.66 3 3 C2.67 3.66 2.34 4.32 2 5 C2.99 4.67 3.98 4.34 5 4 C5 5.98 5 7.96 5 10 C3.02 8.68 1.04 7.36 -1 6 C-0.67 4.02 -0.34 2.04 0 0 Z " fill="#D8D8D8" transform="translate(112,165)"/>
<path d="M0 0 C0.33 0 0.66 0 1 0 C1.3690205 9.41002278 1.3690205 9.41002278 -1 14 C-1.33 14 -1.66 14 -2 14 C-2.21192221 8.80790596 -1.5912689 4.873261 0 0 Z " fill="#4A4B4B" transform="translate(112,156)"/>
<path d="M0 0 C0.33 0 0.66 0 1 0 C1.33 6.27 1.66 12.54 2 19 C1.01 19.33 0.02 19.66 -1 20 C-0.67 13.4 -0.34 6.8 0 0 Z " fill="#160000" transform="translate(208,101)"/>
<path d="M0 0 C0.66 0 1.32 0 2 0 C3.50156874 3.00313748 3.09281204 5.79067522 3.0625 9.125 C3.05347656 10.40632813 3.04445312 11.68765625 3.03515625 13.0078125 C3.02355469 13.99523438 3.01195312 14.98265625 3 16 C2.67 16 2.34 16 2 16 C1.34 10.72 0.68 5.44 0 0 Z " fill="#2D2B2D" transform="translate(194,21)"/>
<path d="M0 0 C-1.57027317 1.57027317 -3.14269947 1.16974386 -5.3125 1.1875 C-6.09238281 1.20167969 -6.87226563 1.21585938 -7.67578125 1.23046875 C-10.2032668 0.97984413 -11.81718031 0.26373772 -14 -1 C-12.23086176 -1.22226864 -10.45955629 -1.42733873 -8.6875 -1.625 C-7.70136719 -1.74101562 -6.71523437 -1.85703125 -5.69921875 -1.9765625 C-3 -2 -3 -2 0 0 Z " fill="#7F7F7F" transform="translate(155,215)"/>
<path d="M0 0 C0.99 0.33 1.98 0.66 3 1 C3 1.66 3 2.32 3 3 C3.66 3 4.32 3 5 3 C5.33 3.99 5.66 4.98 6 6 C4.35 6.33 2.7 6.66 1 7 C0.67 4.69 0.34 2.38 0 0 Z " fill="#AEAEAE" transform="translate(73,162)"/>
<path d="M0 0 C0.33 0 0.66 0 1 0 C1.33 3.63 1.66 7.26 2 11 C1.01 11.66 0.02 12.32 -1 13 C-1.33 10.69 -1.66 8.38 -2 6 C-1.67 6 -1.34 6 -1 6 C-0.67 4.02 -0.34 2.04 0 0 Z " fill="#CED0CE" transform="translate(209,147)"/>
<path d="M0 0 C0.33 0 0.66 0 1 0 C1 2.31 1 4.62 1 7 C-0.32 7.33 -1.64 7.66 -3 8 C-2.25 2.25 -2.25 2.25 0 0 Z " fill="#0B0000" transform="translate(61,153)"/>
<path d="M0 0 C0.99 0.33 1.98 0.66 3 1 C3 3.31 3 5.62 3 8 C1.68 7.67 0.36 7.34 -1 7 C-0.67 4.69 -0.34 2.38 0 0 Z " fill="#8D8D8D" transform="translate(143,144)"/>
<path d="M0 0 C5.53846154 -0.36923077 5.53846154 -0.36923077 7.875 1.5 C8.24625 1.995 8.6175 2.49 9 3 C8.67 3.99 8.34 4.98 8 6 C4.125 4.25 4.125 4.25 3 2 C2.01 1.34 1.02 0.68 0 0 Z " fill="#1F1F1E" transform="translate(144,207)"/>
<path d="M0 0 C5.445 1.485 5.445 1.485 11 3 C11 3.33 11 3.66 11 4 C6.17639811 4.19294408 2.50353262 3.75747614 -2 2 C-1.34 1.34 -0.68 0.68 0 0 Z " fill="#848386" transform="translate(118,249)"/>
<path d="M0 0 C5.75 -0.125 5.75 -0.125 8 1 C8 1.66 8 2.32 8 3 C5.69 3 3.38 3 1 3 C0.67 2.01 0.34 1.02 0 0 Z " fill="#727272" transform="translate(144,230)"/>
<path d="M0 0 C0 1.98 0 3.96 0 6 C-0.66 4.68 -1.32 3.36 -2 2 C-4.31 2.33 -6.62 2.66 -9 3 C-7.14340032 -0.71319936 -3.69365381 -0.09982848 0 0 Z " fill="#DEDCDC" transform="translate(198,19)"/>
<path d="M0 0 C2.31 0 4.62 0 7 0 C6.67 0.99 6.34 1.98 6 3 C3.4375 4.1875 3.4375 4.1875 1 5 C1.33 3.68 1.66 2.36 2 1 C1.34 0.67 0.68 0.34 0 0 Z " fill="#3C040A" transform="translate(156,251)"/>
<path d="M0 0 C1.65 0 3.3 0 5 0 C5 1.32 5 2.64 5 4 C2.69 3.67 0.38 3.34 -2 3 C-1.34 2.67 -0.68 2.34 0 2 C0 1.34 0 0.68 0 0 Z " fill="#8C8C8C" transform="translate(147,222)"/>
<path d="M0 0 C0.33 0 0.66 0 1 0 C1 1.65 1 3.3 1 5 C-1.31 5.66 -3.62 6.32 -6 7 C-6.33 6.34 -6.66 5.68 -7 5 C-5.02 4.67 -3.04 4.34 -1 4 C-0.67 2.68 -0.34 1.36 0 0 Z " fill="#D3D3D3" transform="translate(148,158)"/>
<path d="M0 0 C0.66 0 1.32 0 2 0 C1.67 2.31 1.34 4.62 1 7 C0.01 7.33 -0.98 7.66 -2 8 C-1.34 5.36 -0.68 2.72 0 0 Z " fill="#383738" transform="translate(116,162)"/>
<path d="M0 0 C5.75 -0.125 5.75 -0.125 8 1 C8 1.66 8 2.32 8 3 C5.36 2.67 2.72 2.34 0 2 C0 1.34 0 0.68 0 0 Z " fill="#686868" transform="translate(144,234)"/>
<path d="M0 0 C2.3125 -0.25 2.3125 -0.25 5 0 C6.8125 2 6.8125 2 8 4 C5.36 3.34 2.72 2.68 0 2 C0 1.34 0 0.68 0 0 Z " fill="#434142" transform="translate(142,197)"/>
<path d="M0 0 C2.31 0.33 4.62 0.66 7 1 C7.33 1.99 7.66 2.98 8 4 C5.36 3.34 2.72 2.68 0 2 C0 1.34 0 0.68 0 0 Z " fill="#4D4E4C" transform="translate(142,188)"/>
<path d="M0 0 C0.33 0 0.66 0 1 0 C0.88637738 1.4800841 0.75877092 2.95910074 0.625 4.4375 C0.52058594 5.67306641 0.52058594 5.67306641 0.4140625 6.93359375 C0.27742188 7.61550781 0.14078125 8.29742187 0 9 C-0.99 9.495 -0.99 9.495 -2 10 C-1.54177532 6.53058454 -1.10868317 3.32604951 0 0 Z " fill="#7A7A7B" transform="translate(106,159)"/>
<path d="M0 0 C-0.33 2.97 -0.66 5.94 -1 9 C-1.33 9 -1.66 9 -2 9 C-2.144375 8.236875 -2.28875 7.47375 -2.4375 6.6875 C-2.9632594 3.91827092 -2.9632594 3.91827092 -4 1 C-2 0 -2 0 0 0 Z " fill="#0F0F0F" transform="translate(62,160)"/>
</svg>
